<svg id="Layer_1" data-name="Layer 1" xmlns="http://www.w3.org/2000/svg" viewBox="0 0 440 440"><defs><style>.cls-1{fill:#263c47;}</style></defs><path class="cls-1" d="M359.37,183h-60a3.5,3.5,0,0,0-3.5,3.5v60a3.5,3.5,0,0,0,3.5,3.5h60a3.51,3.51,0,0,0,3.5-3.5v-60A3.51,3.51,0,0,0,359.37,183Zm-3.5,60h-53V190h53Zm-216.5-60h-60a3.5,3.5,0,0,0-3.5,3.5v60a3.5,3.5,0,0,0,3.5,3.5h60a3.51,3.51,0,0,0,3.5-3.5v-60A3.51,3.51,0,0,0,139.37,183Zm-3.5,60h-53V190h53Zm223.5-60h-60a3.5,3.5,0,0,0-3.5,3.5v60a3.5,3.5,0,0,0,3.5,3.5h60a3.51,3.51,0,0,0,3.5-3.5v-60A3.51,3.51,0,0,0,359.37,183Zm-3.5,60h-53V190h53Zm-216.5-60h-60a3.5,3.5,0,0,0-3.5,3.5v60a3.5,3.5,0,0,0,3.5,3.5h60a3.51,3.51,0,0,0,3.5-3.5v-60A3.51,3.51,0,0,0,139.37,183Zm-3.5,60h-53V190h53Zm3.5-60h-60a3.5,3.5,0,0,0-3.5,3.5v60a3.5,3.5,0,0,0,3.5,3.5h60a3.51,3.51,0,0,0,3.5-3.5v-60A3.51,3.51,0,0,0,139.37,183Zm-3.5,60h-53V190h53Zm223.5-60h-60a3.5,3.5,0,0,0-3.5,3.5v60a3.5,3.5,0,0,0,3.5,3.5h60a3.51,3.51,0,0,0,3.5-3.5v-60A3.51,3.51,0,0,0,359.37,183Zm-3.5,60h-53V190h53Zm3.5-60h-60a3.5,3.5,0,0,0-3.5,3.5v60a3.5,3.5,0,0,0,3.5,3.5h60a3.51,3.51,0,0,0,3.5-3.5v-60A3.51,3.51,0,0,0,359.37,183Zm-3.5,60h-53V190h53Zm-216.5-60h-60a3.5,3.5,0,0,0-3.5,3.5v60a3.5,3.5,0,0,0,3.5,3.5h60a3.51,3.51,0,0,0,3.5-3.5v-60A3.51,3.51,0,0,0,139.37,183Zm-3.5,60h-53V190h53Zm3.5-60h-60a3.5,3.5,0,0,0-3.5,3.5v60a3.5,3.5,0,0,0,3.5,3.5h60a3.51,3.51,0,0,0,3.5-3.5v-60A3.51,3.51,0,0,0,139.37,183Zm-3.5,60h-53V190h53Zm223.5-60h-60a3.5,3.5,0,0,0-3.5,3.5v60a3.5,3.5,0,0,0,3.5,3.5h60a3.51,3.51,0,0,0,3.5-3.5v-60A3.51,3.51,0,0,0,359.37,183Zm-3.5,60h-53V190h53Zm3.5-60h-60a3.5,3.5,0,0,0-3.5,3.5v60a3.5,3.5,0,0,0,3.5,3.5h60a3.51,3.51,0,0,0,3.5-3.5v-60A3.51,3.51,0,0,0,359.37,183Zm-3.5,60h-53V190h53Zm-216.5-60h-60a3.5,3.5,0,0,0-3.5,3.5v60a3.5,3.5,0,0,0,3.5,3.5h60a3.51,3.51,0,0,0,3.5-3.5v-60A3.51,3.51,0,0,0,139.37,183Zm-3.5,60h-53V190h53Zm3.5-60h-60a3.5,3.5,0,0,0-3.5,3.5v60a3.5,3.5,0,0,0,3.5,3.5h60a3.51,3.51,0,0,0,3.5-3.5v-60A3.51,3.51,0,0,0,139.37,183Zm-3.5,60h-53V190h53Zm223.5-60h-60a3.5,3.5,0,0,0-3.5,3.5v60a3.5,3.5,0,0,0,3.5,3.5h60a3.51,3.51,0,0,0,3.5-3.5v-60A3.51,3.51,0,0,0,359.37,183Zm-3.5,60h-53V190h53Zm3.5-60h-60a3.5,3.5,0,0,0-3.5,3.5v60a3.5,3.5,0,0,0,3.5,3.5h60a3.51,3.51,0,0,0,3.5-3.5v-60A3.51,3.51,0,0,0,359.37,183Zm-3.5,60h-53V190h53Zm-216.5-60h-60a3.5,3.5,0,0,0-3.5,3.5v60a3.5,3.5,0,0,0,3.5,3.5h60a3.51,3.51,0,0,0,3.5-3.5v-60A3.51,3.51,0,0,0,139.37,183Zm-3.5,60h-53V190h53Zm282.5-110.7-34.68,0-162.24-74a3.52,3.52,0,0,0-2.91,0L112.87,106.49v-23a3.51,3.51,0,0,0-3.5-3.5h-52a3.5,3.5,0,0,0-3.5,3.5V132l-32.23,0a3.5,3.5,0,0,0,0,7l32.05,0V359.36H47.16a3.49,3.49,0,0,0-3,1.63l-9.88,15.64a3.54,3.54,0,0,0-.1,3.56A3.48,3.48,0,0,0,37.28,382H402.72a3.51,3.51,0,0,0,3-5.37L395.79,361a3.48,3.48,0,0,0-3-1.63h-6.51V139.28l32.05,0a3.5,3.5,0,0,0,0-7ZM110.71,115.17l.05,0L220,65.35l146.79,66.91L73.71,132ZM60.87,87h45v22.68l-45,20.52Zm-.19,52,318.64.24V359.36H264.83V186.5a3.5,3.5,0,0,0-3.5-3.5H178.24a3.05,3.05,0,0,0-.52.05l-.14,0a3.61,3.61,0,0,0-.56.18l-.14.07a1.12,1.12,0,0,0-.22.1,1.22,1.22,0,0,0-.19.12l-.14.08a4.11,4.11,0,0,0-.45.38l-.07.07a3,3,0,0,0-.32.39l-.09.14a3.25,3.25,0,0,0-.28.52.13.13,0,0,1,0,.05,2.46,2.46,0,0,0-.15.53,1,1,0,0,0,0,.17,4.2,4.2,0,0,0-.07.62V359.36H60.68Zm155.06,203.9a3.48,3.48,0,0,0,1.59-2.94V209.41a3.48,3.48,0,0,0-1.59-2.94L190.22,190h67.61V359.36H190.28Zm-33.91,13.55V192.92l28.5,18.4V338.09Zm209.08,9.88,5.46,8.64H43.64l5.44-8.64H177.89a3.27,3.27,0,0,0,.44,0h83a3.14,3.14,0,0,0,.45,0ZM299.37,250h60a3.51,3.51,0,0,0,3.5-3.5v-60a3.51,3.51,0,0,0-3.5-3.5h-60a3.5,3.5,0,0,0-3.5,3.5v60A3.5,3.5,0,0,0,299.37,250Zm3.5-60h53v53h-53Zm-163.5-7h-60a3.5,3.5,0,0,0-3.5,3.5v60a3.5,3.5,0,0,0,3.5,3.5h60a3.51,3.51,0,0,0,3.5-3.5v-60A3.51,3.51,0,0,0,139.37,183Zm-3.5,60h-53V190h53Zm3.5-60h-60a3.5,3.5,0,0,0-3.5,3.5v60a3.5,3.5,0,0,0,3.5,3.5h60a3.51,3.51,0,0,0,3.5-3.5v-60A3.51,3.51,0,0,0,139.37,183Zm-3.5,60h-53V190h53Zm223.5-60h-60a3.5,3.5,0,0,0-3.5,3.5v60a3.5,3.5,0,0,0,3.5,3.5h60a3.51,3.51,0,0,0,3.5-3.5v-60A3.51,3.51,0,0,0,359.37,183Zm-3.5,60h-53V190h53Zm3.5-60h-60a3.5,3.5,0,0,0-3.5,3.5v60a3.5,3.5,0,0,0,3.5,3.5h60a3.51,3.51,0,0,0,3.5-3.5v-60A3.51,3.51,0,0,0,359.37,183Zm-3.5,60h-53V190h53Zm-216.5-60h-60a3.5,3.5,0,0,0-3.5,3.5v60a3.5,3.5,0,0,0,3.5,3.5h60a3.51,3.51,0,0,0,3.5-3.5v-60A3.51,3.51,0,0,0,139.37,183Zm-3.5,60h-53V190h53Zm3.5-60h-60a3.5,3.5,0,0,0-3.5,3.5v60a3.5,3.5,0,0,0,3.5,3.5h60a3.51,3.51,0,0,0,3.5-3.5v-60A3.51,3.51,0,0,0,139.37,183Zm-3.5,60h-53V190h53Zm223.5-60h-60a3.5,3.5,0,0,0-3.5,3.5v60a3.5,3.5,0,0,0,3.5,3.5h60a3.51,3.51,0,0,0,3.5-3.5v-60A3.51,3.51,0,0,0,359.37,183Zm-3.5,60h-53V190h53Zm3.5-60h-60a3.5,3.5,0,0,0-3.5,3.5v60a3.5,3.5,0,0,0,3.5,3.5h60a3.51,3.51,0,0,0,3.5-3.5v-60A3.51,3.51,0,0,0,359.37,183Zm-3.5,60h-53V190h53Zm-216.5-60h-60a3.5,3.5,0,0,0-3.5,3.5v60a3.5,3.5,0,0,0,3.5,3.5h60a3.51,3.51,0,0,0,3.5-3.5v-60A3.51,3.51,0,0,0,139.37,183Zm-3.5,60h-53V190h53Zm3.5-60h-60a3.5,3.5,0,0,0-3.5,3.5v60a3.5,3.5,0,0,0,3.5,3.5h60a3.51,3.51,0,0,0,3.5-3.5v-60A3.51,3.51,0,0,0,139.37,183Zm-3.5,60h-53V190h53Zm223.5-60h-60a3.5,3.5,0,0,0-3.5,3.5v60a3.5,3.5,0,0,0,3.5,3.5h60a3.51,3.51,0,0,0,3.5-3.5v-60A3.51,3.51,0,0,0,359.37,183Zm-3.5,60h-53V190h53Zm3.5-60h-60a3.5,3.5,0,0,0-3.5,3.5v60a3.5,3.5,0,0,0,3.5,3.5h60a3.51,3.51,0,0,0,3.5-3.5v-60A3.51,3.51,0,0,0,359.37,183Zm-3.5,60h-53V190h53Zm-216.5-60h-60a3.5,3.5,0,0,0-3.5,3.5v60a3.5,3.5,0,0,0,3.5,3.5h60a3.51,3.51,0,0,0,3.5-3.5v-60A3.51,3.51,0,0,0,139.37,183Zm-3.5,60h-53V190h53Zm223.5-60h-60a3.5,3.5,0,0,0-3.5,3.5v60a3.5,3.5,0,0,0,3.5,3.5h60a3.51,3.51,0,0,0,3.5-3.5v-60A3.51,3.51,0,0,0,359.37,183Zm-3.5,60h-53V190h53Zm-216.5-60h-60a3.5,3.5,0,0,0-3.5,3.5v60a3.5,3.5,0,0,0,3.5,3.5h60a3.51,3.51,0,0,0,3.5-3.5v-60A3.51,3.51,0,0,0,139.37,183Zm-3.5,60h-53V190h53Zm3.5-60h-60a3.5,3.5,0,0,0-3.5,3.5v60a3.5,3.5,0,0,0,3.5,3.5h60a3.51,3.51,0,0,0,3.5-3.5v-60A3.51,3.51,0,0,0,139.37,183Zm-3.5,60h-53V190h53Zm223.5-60h-60a3.5,3.5,0,0,0-3.5,3.5v60a3.5,3.5,0,0,0,3.5,3.5h60a3.51,3.51,0,0,0,3.5-3.5v-60A3.51,3.51,0,0,0,359.37,183Zm-3.5,60h-53V190h53Z"/></svg>