<svg id="Layer_1" data-name="Layer 1" xmlns="http://www.w3.org/2000/svg" viewBox="0 0 440 440"><defs><style>.cls-1{fill:#263c47;}</style></defs><path class="cls-1" d="M239.15,47.79,223,22.24a3.5,3.5,0,0,0-5.92,0L200.85,47.79C171.66,93.84,155.58,155,155.58,220s16.08,126.15,45.27,172.21L217,417.77a3.51,3.51,0,0,0,5.92,0l16.19-25.55C268.34,346.16,284.42,285,284.42,220S268.34,93.84,239.15,47.79Zm-32.39,3.75L220,30.66l13.24,20.88c17.76,28,30.15,61.34,37.2,96.76L169.61,148C176.67,112.71,189,79.49,206.76,51.54ZM168.29,155l103.47.27c1.64,9.26,2.93,18.65,3.85,28.1L164.42,183Q165.82,168.88,168.29,155Zm65,233.44L220,409.35l-13.24-20.88c-12.7-20-22.65-42.78-29.87-67.06h86.22C255.89,345.69,245.94,368.44,233.24,388.47Zm31.87-74.06H174.89q-3.76-13.83-6.38-28.21h103Q268.88,300.55,265.11,314.41Zm-97.8-35.21A375.43,375.43,0,0,1,163.8,190l112.44.39a375.34,375.34,0,0,1-3.55,88.79Z"/></svg>