<svg id="Layer_1" data-name="Layer 1" xmlns="http://www.w3.org/2000/svg" viewBox="0 0 440 440"><defs><style>.cls-1{fill:#263c47;}</style></defs><path class="cls-1" d="M248.11,319.26a27.56,27.56,0,0,0-26.64-25.47l-.19,0h-.58a27.57,27.57,0,0,0-27.43,25.46c-.05.66-.07,1.35-.07,2v46.24a3.49,3.49,0,0,0,3.5,3.5h48a3.5,3.5,0,0,0,3.5-3.5V321.27C248.2,320.58,248.17,319.89,248.11,319.26ZM217.78,364H200.2V335.89h17.58Zm0-35.12H200.2v-7.62c0-.5,0-1,.05-1.51A20.57,20.57,0,0,1,217.78,301ZM241.2,364H224.78V335.89H241.2Zm0-35.12H224.78v-27.7a20.58,20.58,0,0,1,16.36,18.61c0,.47.06,1,.06,1.47Zm6.91-9.63a27.56,27.56,0,0,0-26.64-25.47l-.19,0h-.58a27.57,27.57,0,0,0-27.43,25.46c-.05.66-.07,1.35-.07,2v46.24a3.49,3.49,0,0,0,3.5,3.5h48a3.5,3.5,0,0,0,3.5-3.5V321.27C248.2,320.58,248.17,319.89,248.11,319.26ZM217.78,364H200.2V335.89h17.58Zm0-35.12H200.2v-7.62c0-.5,0-1,.05-1.51A20.57,20.57,0,0,1,217.78,301ZM241.2,364H224.78V335.89H241.2Zm0-35.12H224.78v-27.7a20.58,20.58,0,0,1,16.36,18.61c0,.47.06,1,.06,1.47Zm6.91-9.63a27.56,27.56,0,0,0-26.64-25.47l-.19,0h-.58a27.57,27.57,0,0,0-27.43,25.46c-.05.66-.07,1.35-.07,2v46.24a3.49,3.49,0,0,0,3.5,3.5h48a3.5,3.5,0,0,0,3.5-3.5V321.27C248.2,320.58,248.17,319.89,248.11,319.26ZM217.78,364H200.2V335.89h17.58Zm0-35.12H200.2v-7.62c0-.5,0-1,.05-1.51A20.57,20.57,0,0,1,217.78,301ZM241.2,364H224.78V335.89H241.2Zm0-35.12H224.78v-27.7a20.58,20.58,0,0,1,16.36,18.61c0,.47.06,1,.06,1.47Zm6.91-9.63a27.56,27.56,0,0,0-26.64-25.47l-.19,0h-.58a27.57,27.57,0,0,0-27.43,25.46c-.05.66-.07,1.35-.07,2v46.24a3.49,3.49,0,0,0,3.5,3.5h48a3.5,3.5,0,0,0,3.5-3.5V321.27C248.2,320.58,248.17,319.89,248.11,319.26ZM217.78,364H200.2V335.89h17.58Zm0-35.12H200.2v-7.62c0-.5,0-1,.05-1.51A20.57,20.57,0,0,1,217.78,301ZM241.2,364H224.78V335.89H241.2Zm0-35.12H224.78v-27.7a20.58,20.58,0,0,1,16.36,18.61c0,.47.06,1,.06,1.47Zm6.91-9.63a27.56,27.56,0,0,0-26.64-25.47l-.19,0h-.58a27.57,27.57,0,0,0-27.43,25.46c-.05.66-.07,1.35-.07,2v46.24a3.49,3.49,0,0,0,3.5,3.5h48a3.5,3.5,0,0,0,3.5-3.5V321.27C248.2,320.58,248.17,319.89,248.11,319.26ZM217.78,364H200.2V335.89h17.58Zm0-35.12H200.2v-7.62c0-.5,0-1,.05-1.51A20.57,20.57,0,0,1,217.78,301ZM241.2,364H224.78V335.89H241.2Zm0-35.12H224.78v-27.7a20.58,20.58,0,0,1,16.36,18.61c0,.47.06,1,.06,1.47Zm6.91-9.63a27.56,27.56,0,0,0-26.64-25.47l-.19,0h-.58a27.57,27.57,0,0,0-27.43,25.46c-.05.66-.07,1.35-.07,2v46.24a3.49,3.49,0,0,0,3.5,3.5h48a3.5,3.5,0,0,0,3.5-3.5V321.27C248.2,320.58,248.17,319.89,248.11,319.26ZM217.78,364H200.2V335.89h17.58Zm0-35.12H200.2v-7.62c0-.5,0-1,.05-1.51A20.57,20.57,0,0,1,217.78,301ZM241.2,364H224.78V335.89H241.2Zm0-35.12H224.78v-27.7a20.58,20.58,0,0,1,16.36,18.61c0,.47.06,1,.06,1.47Zm6.91-9.63a27.56,27.56,0,0,0-26.64-25.47l-.19,0h-.58a27.57,27.57,0,0,0-27.43,25.46c-.05.66-.07,1.35-.07,2v46.24a3.49,3.49,0,0,0,3.5,3.5h48a3.5,3.5,0,0,0,3.5-3.5V321.27C248.2,320.58,248.17,319.89,248.11,319.26ZM217.78,364H200.2V335.89h17.58Zm0-35.12H200.2v-7.62c0-.5,0-1,.05-1.51A20.57,20.57,0,0,1,217.78,301ZM241.2,364H224.78V335.89H241.2Zm0-35.12H224.78v-27.7a20.58,20.58,0,0,1,16.36,18.61c0,.47.06,1,.06,1.47Zm6.91-9.63a27.56,27.56,0,0,0-26.64-25.47l-.19,0h-.58a27.57,27.57,0,0,0-27.43,25.46c-.05.66-.07,1.35-.07,2v46.24a3.49,3.49,0,0,0,3.5,3.5h48a3.5,3.5,0,0,0,3.5-3.5V321.27C248.2,320.58,248.17,319.89,248.11,319.26ZM217.78,364H200.2V335.89h17.58Zm0-35.12H200.2v-7.62c0-.5,0-1,.05-1.51A20.57,20.57,0,0,1,217.78,301ZM241.2,364H224.78V335.89H241.2Zm0-35.12H224.78v-27.7a20.58,20.58,0,0,1,16.36,18.61c0,.47.06,1,.06,1.47Zm6.91-9.63a27.56,27.56,0,0,0-26.64-25.47l-.19,0h-.58a27.57,27.57,0,0,0-27.43,25.46c-.05.66-.07,1.35-.07,2v46.24a3.49,3.49,0,0,0,3.5,3.5h48a3.5,3.5,0,0,0,3.5-3.5V321.27C248.2,320.58,248.17,319.89,248.11,319.26ZM217.78,364H200.2V335.89h17.58Zm0-35.12H200.2v-7.62c0-.5,0-1,.05-1.51A20.57,20.57,0,0,1,217.78,301ZM241.2,364H224.78V335.89H241.2Zm0-35.12H224.78v-27.7a20.58,20.58,0,0,1,16.36,18.61c0,.47.06,1,.06,1.47Zm6.91-9.63a27.56,27.56,0,0,0-26.64-25.47l-.19,0h-.58a27.57,27.57,0,0,0-27.43,25.46c-.05.66-.07,1.35-.07,2v46.24a3.49,3.49,0,0,0,3.5,3.5h48a3.5,3.5,0,0,0,3.5-3.5V321.27C248.2,320.58,248.17,319.89,248.11,319.26ZM217.78,364H200.2V335.89h17.58Zm0-35.12H200.2v-7.62c0-.5,0-1,.05-1.51A20.57,20.57,0,0,1,217.78,301ZM241.2,364H224.78V335.89H241.2Zm0-35.12H224.78v-27.7a20.58,20.58,0,0,1,16.36,18.61c0,.47.06,1,.06,1.47Zm6.91-9.63a27.56,27.56,0,0,0-26.64-25.47l-.19,0h-.58a27.57,27.57,0,0,0-27.43,25.46c-.05.66-.07,1.35-.07,2v46.24a3.49,3.49,0,0,0,3.5,3.5h48a3.5,3.5,0,0,0,3.5-3.5V321.27C248.2,320.58,248.17,319.89,248.11,319.26ZM217.78,364H200.2V335.89h17.58Zm0-35.12H200.2v-7.62c0-.5,0-1,.05-1.51A20.57,20.57,0,0,1,217.78,301ZM241.2,364H224.78V335.89H241.2Zm0-35.12H224.78v-27.7a20.58,20.58,0,0,1,16.36,18.61c0,.47.06,1,.06,1.47Zm6.91-9.63a27.56,27.56,0,0,0-26.64-25.47l-.19,0h-.58a27.57,27.57,0,0,0-27.43,25.46c-.05.66-.07,1.35-.07,2v46.24a3.49,3.49,0,0,0,3.5,3.5h48a3.5,3.5,0,0,0,3.5-3.5V321.27C248.2,320.58,248.17,319.89,248.11,319.26ZM217.78,364H200.2V335.89h17.58Zm0-35.12H200.2v-7.62c0-.5,0-1,.05-1.51A20.57,20.57,0,0,1,217.78,301ZM241.2,364H224.78V335.89H241.2Zm0-35.12H224.78v-27.7a20.58,20.58,0,0,1,16.36,18.61c0,.47.06,1,.06,1.47ZM355.92,408.5H329L251.38,190.73a3.5,3.5,0,0,0-3.3-2.33H233V98.23h50.36a3.5,3.5,0,0,0,3.5-3.5V76a3.5,3.5,0,0,0-3.5-3.5H233V28a3.5,3.5,0,0,0-3.5-3.5H210.74a3.5,3.5,0,0,0-3.5,3.5V72.5H158.06a3.51,3.51,0,0,0-3.5,3.5V94.73a3.5,3.5,0,0,0,3.5,3.5h49.18V188.4h-13.1a3.52,3.52,0,0,0-3.31,2.33L113.22,408.5H84.08a3.5,3.5,0,1,0,0,7H355.92a3.5,3.5,0,1,0,0-7ZM233,79.5h46.86V91.23H233Zm-18.73-48H226v41H214.24Zm0,48H226V91.23H214.24Zm0,18.73H226V188.4H214.24Zm-52.68-7V79.5h45.68V91.23ZM120.65,408.5,196.6,195.4h49l75.95,213.1ZM221.47,293.79l-.19,0h-.58a27.57,27.57,0,0,0-27.43,25.46c-.05.66-.07,1.35-.07,2v46.24a3.49,3.49,0,0,0,3.5,3.5h48a3.5,3.5,0,0,0,3.5-3.5V321.27c0-.69,0-1.38-.09-2A27.56,27.56,0,0,0,221.47,293.79ZM217.78,364H200.2V335.89h17.58Zm0-35.12H200.2v-7.62c0-.5,0-1,.05-1.51A20.57,20.57,0,0,1,217.78,301ZM241.2,364H224.78V335.89H241.2Zm0-42.74v7.62H224.78v-27.7a20.58,20.58,0,0,1,16.36,18.61C241.18,320.27,241.2,320.77,241.2,321.27Zm6.91-2a27.56,27.56,0,0,0-26.64-25.47l-.19,0h-.58a27.57,27.57,0,0,0-27.43,25.46c-.05.66-.07,1.35-.07,2v46.24a3.49,3.49,0,0,0,3.5,3.5h48a3.5,3.5,0,0,0,3.5-3.5V321.27C248.2,320.58,248.17,319.89,248.11,319.26ZM217.78,364H200.2V335.89h17.58Zm0-35.12H200.2v-7.62c0-.5,0-1,.05-1.51A20.57,20.57,0,0,1,217.78,301ZM241.2,364H224.78V335.89H241.2Zm0-35.12H224.78v-27.7a20.58,20.58,0,0,1,16.36,18.61c0,.47.06,1,.06,1.47Zm6.91-9.63a27.56,27.56,0,0,0-26.64-25.47l-.19,0h-.58a27.57,27.57,0,0,0-27.43,25.46c-.05.66-.07,1.35-.07,2v46.24a3.49,3.49,0,0,0,3.5,3.5h48a3.5,3.5,0,0,0,3.5-3.5V321.27C248.2,320.58,248.17,319.89,248.11,319.26ZM217.78,364H200.2V335.89h17.58Zm0-35.12H200.2v-7.62c0-.5,0-1,.05-1.51A20.57,20.57,0,0,1,217.78,301ZM241.2,364H224.78V335.89H241.2Zm0-35.12H224.78v-27.7a20.58,20.58,0,0,1,16.36,18.61c0,.47.06,1,.06,1.47Zm6.91-9.63a27.56,27.56,0,0,0-26.64-25.47l-.19,0h-.58a27.57,27.57,0,0,0-27.43,25.46c-.05.66-.07,1.35-.07,2v46.24a3.49,3.49,0,0,0,3.5,3.5h48a3.5,3.5,0,0,0,3.5-3.5V321.27C248.2,320.58,248.17,319.89,248.11,319.26ZM217.78,364H200.2V335.89h17.58Zm0-35.12H200.2v-7.62c0-.5,0-1,.05-1.51A20.57,20.57,0,0,1,217.78,301ZM241.2,364H224.78V335.89H241.2Zm0-35.12H224.78v-27.7a20.58,20.58,0,0,1,16.36,18.61c0,.47.06,1,.06,1.47Zm6.91-9.63a27.56,27.56,0,0,0-26.64-25.47l-.19,0h-.58a27.57,27.57,0,0,0-27.43,25.46c-.05.66-.07,1.35-.07,2v46.24a3.49,3.49,0,0,0,3.5,3.5h48a3.5,3.5,0,0,0,3.5-3.5V321.27C248.2,320.58,248.17,319.89,248.11,319.26ZM217.78,364H200.2V335.89h17.58Zm0-35.12H200.2v-7.62c0-.5,0-1,.05-1.51A20.57,20.57,0,0,1,217.78,301ZM241.2,364H224.78V335.89H241.2Zm0-35.12H224.78v-27.7a20.58,20.58,0,0,1,16.36,18.61c0,.47.06,1,.06,1.47Zm6.91-9.63a27.56,27.56,0,0,0-26.64-25.47l-.19,0h-.58a27.57,27.57,0,0,0-27.43,25.46c-.05.66-.07,1.35-.07,2v46.24a3.49,3.49,0,0,0,3.5,3.5h48a3.5,3.5,0,0,0,3.5-3.5V321.27C248.2,320.58,248.17,319.89,248.11,319.26ZM217.78,364H200.2V335.89h17.58Zm0-35.12H200.2v-7.62c0-.5,0-1,.05-1.51A20.57,20.57,0,0,1,217.78,301ZM241.2,364H224.78V335.89H241.2Zm0-35.12H224.78v-27.7a20.58,20.58,0,0,1,16.36,18.61c0,.47.06,1,.06,1.47Zm6.91-9.63a27.56,27.56,0,0,0-26.64-25.47l-.19,0h-.58a27.57,27.57,0,0,0-27.43,25.46c-.05.66-.07,1.35-.07,2v46.24a3.49,3.49,0,0,0,3.5,3.5h48a3.5,3.5,0,0,0,3.5-3.5V321.27C248.2,320.58,248.17,319.89,248.11,319.26ZM217.78,364H200.2V335.89h17.58Zm0-35.12H200.2v-7.62c0-.5,0-1,.05-1.51A20.57,20.57,0,0,1,217.78,301ZM241.2,364H224.78V335.89H241.2Zm0-35.12H224.78v-27.7a20.58,20.58,0,0,1,16.36,18.61c0,.47.06,1,.06,1.47Zm6.91-9.63a27.56,27.56,0,0,0-26.64-25.47l-.19,0h-.58a27.57,27.57,0,0,0-27.43,25.46c-.05.66-.07,1.35-.07,2v46.24a3.49,3.49,0,0,0,3.5,3.5h48a3.5,3.5,0,0,0,3.5-3.5V321.27C248.2,320.58,248.17,319.89,248.11,319.26ZM217.78,364H200.2V335.89h17.58Zm0-35.12H200.2v-7.62c0-.5,0-1,.05-1.51A20.57,20.57,0,0,1,217.78,301ZM241.2,364H224.78V335.89H241.2Zm0-35.12H224.78v-27.7a20.58,20.58,0,0,1,16.36,18.61c0,.47.06,1,.06,1.47Zm6.91-9.63a27.56,27.56,0,0,0-26.64-25.47l-.19,0h-.58a27.57,27.57,0,0,0-27.43,25.46c-.05.66-.07,1.35-.07,2v46.24a3.49,3.49,0,0,0,3.5,3.5h48a3.5,3.5,0,0,0,3.5-3.5V321.27C248.2,320.58,248.17,319.89,248.11,319.26ZM217.78,364H200.2V335.89h17.58Zm0-35.12H200.2v-7.62c0-.5,0-1,.05-1.51A20.57,20.57,0,0,1,217.78,301ZM241.2,364H224.78V335.89H241.2Zm0-35.12H224.78v-27.7a20.58,20.58,0,0,1,16.36,18.61c0,.47.06,1,.06,1.47Zm6.91-9.63a27.56,27.56,0,0,0-26.64-25.47l-.19,0h-.58a27.57,27.57,0,0,0-27.43,25.46c-.05.66-.07,1.35-.07,2v46.24a3.49,3.49,0,0,0,3.5,3.5h48a3.5,3.5,0,0,0,3.5-3.5V321.27C248.2,320.58,248.17,319.89,248.11,319.26ZM217.78,364H200.2V335.89h17.58Zm0-35.12H200.2v-7.62c0-.5,0-1,.05-1.51A20.57,20.57,0,0,1,217.78,301ZM241.2,364H224.78V335.89H241.2Zm0-35.12H224.78v-27.7a20.58,20.58,0,0,1,16.36,18.61c0,.47.06,1,.06,1.47Zm6.91-9.63a27.56,27.56,0,0,0-26.64-25.47l-.19,0h-.58a27.57,27.57,0,0,0-27.43,25.46c-.05.66-.07,1.35-.07,2v46.24a3.49,3.49,0,0,0,3.5,3.5h48a3.5,3.5,0,0,0,3.5-3.5V321.27C248.2,320.58,248.17,319.89,248.11,319.26ZM217.78,364H200.2V335.89h17.58Zm0-35.12H200.2v-7.62c0-.5,0-1,.05-1.51A20.57,20.57,0,0,1,217.78,301ZM241.2,364H224.78V335.89H241.2Zm0-35.12H224.78v-27.7a20.58,20.58,0,0,1,16.36,18.61c0,.47.06,1,.06,1.47Z"/></svg>