<svg id="Layer_1" data-name="Layer 1" xmlns="http://www.w3.org/2000/svg" viewBox="0 0 440 440"><defs><style>.cls-1{fill:#263c47;}</style></defs><path class="cls-1" d="M346.74,346.57,312.33,334.3,346.74,322a3.49,3.49,0,0,0,2.12-4.46l-18.47-51.81a3.5,3.5,0,0,0-4.47-2.13L281.69,279.4A95.4,95.4,0,0,0,305.29,248a100.73,100.73,0,0,0-6.93-98.33L222.91,36.38a3.51,3.51,0,0,0-5.82,0L141.64,149.71A100.73,100.73,0,0,0,134.71,248a95.4,95.4,0,0,0,23.6,31.36l-44.23-15.77a3.5,3.5,0,0,0-4.47,2.13L91.14,317.57A3.49,3.49,0,0,0,93.26,322l34.41,12.27L93.26,346.57A3.5,3.5,0,0,0,91.14,351l18.47,51.8a3.49,3.49,0,0,0,1.79,2,3.45,3.45,0,0,0,1.5.33,3.94,3.94,0,0,0,1.18-.19L220,367.22,325.92,405a3.94,3.94,0,0,0,1.18.19,3.45,3.45,0,0,0,1.5-.33,3.49,3.49,0,0,0,1.79-2L348.86,351A3.5,3.5,0,0,0,346.74,346.57ZM325,271.4l16.11,45.21-39.19,14L230.42,305.1ZM194.26,284.63a29.44,29.44,0,0,0,2.49,4.27,45.39,45.39,0,0,1-18.19-20.14,48.67,48.67,0,0,1,3.37-48.13L220,163.46l38.07,57.17a48.67,48.67,0,0,1,3.37,48.13,45.39,45.39,0,0,1-18.19,20.14,29.44,29.44,0,0,0,2.49-4.27,30.24,30.24,0,0,0-2.09-29.52L222.91,224a3.48,3.48,0,0,0-5.82,0l-20.74,31.14A30.24,30.24,0,0,0,194.26,284.63ZM202.17,259,220,232.22,237.83,259a22.91,22.91,0,0,1,1.58,22.65,20.68,20.68,0,0,1-16.84,12.13,27.58,27.58,0,0,1-5.14,0,20.68,20.68,0,0,1-16.84-12.13A22.91,22.91,0,0,1,202.17,259ZM141,245.05c-14.15-30-11.75-64.17,6.42-91.46L220,44.63l72.54,109c18.17,27.29,20.57,61.5,6.42,91.46-9.26,19.6-24.12,34.25-42.44,42.43a53.91,53.91,0,0,0,11.25-15.74,56.33,56.33,0,0,0-3.87-55l-41-61.55a3.48,3.48,0,0,0-5.82,0l-41,61.55a56.33,56.33,0,0,0-3.87,55,53.91,53.91,0,0,0,11.25,15.74C165.16,279.3,150.3,264.65,141,245.05ZM98.91,316.61,115,271.4l94.56,33.7L138.1,330.59ZM115,397.21,98.91,352l39.19-14,71.48,25.48Zm33.5-62.91L220,308.83l71.48,25.47L220,359.78ZM325,397.21,230.42,363.5,301.9,338l39.19,14Z"/></svg>