<svg id="Layer_1" data-name="Layer 1" xmlns="http://www.w3.org/2000/svg" viewBox="0 0 440 440"><defs><style>.cls-1{fill:#263c47;}</style></defs><path class="cls-1" d="M285,58.52H267a124.11,124.11,0,0,0-124,124v16.39L61.24,220.79a3.49,3.49,0,0,0-1.57,5.85l61,61a3.53,3.53,0,0,0,2.48,1,3.41,3.41,0,0,0,.9-.11,3.49,3.49,0,0,0,2.48-2.48l22-82h16.09a124.1,124.1,0,0,0,124-124V62A3.5,3.5,0,0,0,285,58.52ZM121.32,278.39,68.9,226l71.6-19.2ZM281.54,80.09a117.1,117.1,0,0,1-117,117H150V182.49a117.1,117.1,0,0,1,117-117h14.57Zm98.8,133.26-61-61a3.52,3.52,0,0,0-5.86,1.57l-22,82H275.43a124.12,124.12,0,0,0-124,124V378a3.5,3.5,0,0,0,3.5,3.5H173a124.12,124.12,0,0,0,124-124V241.12l81.77-21.9a3.52,3.52,0,0,0,1.57-5.87ZM290,257.5a117.11,117.11,0,0,1-117,117H158.46V359.9a117.11,117.11,0,0,1,117-117H290Zm9.5-24.29,19.19-71.61L371.1,214Z"/></svg>