<svg id="Layer_1" data-name="Layer 1" xmlns="http://www.w3.org/2000/svg" viewBox="0 0 440 440"><defs><style>.cls-1{fill:#263c47;}</style></defs><path class="cls-1" d="M396.59,217.52l-11.35-11.35a109.76,109.76,0,0,0-58.13-30.58,109.94,109.94,0,0,0,19.51-62.65V96.88a3.5,3.5,0,0,0-3.5-3.5H327.06a109.9,109.9,0,0,0-62.71,19.56,110,110,0,0,0-30.52-58.18L222.48,43.41a3.49,3.49,0,0,0-4.95,0L206.17,54.76a110,110,0,0,0-30.52,58.18,109.9,109.9,0,0,0-62.71-19.56H96.88a3.5,3.5,0,0,0-3.5,3.5v16.06a109.9,109.9,0,0,0,19.56,62.71,109.91,109.91,0,0,0-58.17,30.52L43.41,217.53a3.48,3.48,0,0,0,0,4.94l11.36,11.36a109.91,109.91,0,0,0,58.17,30.52,109.9,109.9,0,0,0-19.56,62.71v16.06a3.5,3.5,0,0,0,3.5,3.5h16.06a109.9,109.9,0,0,0,62.71-19.56,110,110,0,0,0,30.52,58.18l11.36,11.35a3.49,3.49,0,0,0,4.95,0l11.35-11.35a110,110,0,0,0,30.52-58.18,109.9,109.9,0,0,0,62.71,19.56h16.06a3.5,3.5,0,0,0,3.5-3.5V327.06a109.94,109.94,0,0,0-19.51-62.65,109.76,109.76,0,0,0,58.13-30.58l11.35-11.36a3.46,3.46,0,0,0,1-2.47A3.5,3.5,0,0,0,396.59,217.52Zm-131.1-96.8a103,103,0,0,1,61.57-20.34h12.56v12.56a103,103,0,0,1-20.3,61.52,111,111,0,0,0-12.27-.68A109.91,109.91,0,0,0,251,189,110.85,110.85,0,0,0,265.49,120.72Zm-29.44,95.76h-7.56l5.34-5.34c.34-.33.66-.67,1-1a102.91,102.91,0,0,1,72.23-29.35q3.51,0,7,.24a103.35,103.35,0,0,1-76.61,35.48ZM314,259c-2.32.15-4.65.24-7,.24a102.86,102.86,0,0,1-72.22-29.34c-.33-.34-.66-.69-1-1l-5.34-5.34h7.56l1.38,0A103.35,103.35,0,0,1,314,259Zm-84.16-53.81-1,1-5.34,5.34V204c0-.47,0-.93,0-1.39A103.38,103.38,0,0,1,258.94,126,103.37,103.37,0,0,1,229.88,205.17ZM211.12,59.71,220,50.83l8.88,8.88A103,103,0,0,1,258,117.63a110.85,110.85,0,0,0-38,58.61,110.8,110.8,0,0,0-38.09-58.65A102.79,102.79,0,0,1,211.12,59.71ZM181,126a103.35,103.35,0,0,1,35.48,76.61c0,.46,0,.92,0,1.39v7.55l-5.34-5.34c-.33-.34-.68-.67-1-1A102.86,102.86,0,0,1,180.78,133C180.78,130.61,180.87,128.28,181,126ZM204,216.48l-1.39,0A103.33,103.33,0,0,1,126,181.07a103.35,103.35,0,0,1,79.17,29.06l1,1,5.34,5.34Zm7.55,7-5.34,5.34c-.34.33-.67.68-1,1A102.85,102.85,0,0,1,133,259.22c-2.35,0-4.68-.09-7-.24a103.36,103.36,0,0,1,76.61-35.48l1.39,0ZM100.38,112.94V100.38h12.56a103,103,0,0,1,61.57,20.34,110.87,110.87,0,0,0,14.55,68.34,110.8,110.8,0,0,0-68.34-14.55A103,103,0,0,1,100.38,112.94ZM59.72,228.88,50.83,220l8.89-8.88A103,103,0,0,1,117.64,182a110.82,110.82,0,0,0,58.6,38,110.84,110.84,0,0,0-58.65,38.09A102.76,102.76,0,0,1,59.72,228.88Zm114.79,90.4a103,103,0,0,1-61.57,20.34H100.38V327.06a103,103,0,0,1,20.34-61.57,110.86,110.86,0,0,0,68.34-14.55A110.87,110.87,0,0,0,174.51,319.28Zm35.63-84.47,1-1,5.34-5.34V236c0,.47,0,.93,0,1.39A103.37,103.37,0,0,1,181.07,314,103.37,103.37,0,0,1,210.14,234.81Zm18.74,145.48L220,389.17l-8.88-8.88A103.1,103.1,0,0,1,182,322.37a110.79,110.79,0,0,0,38-58.61,110.85,110.85,0,0,0,38,58.61A103,103,0,0,1,228.88,380.29ZM258.94,314a103.38,103.38,0,0,1-35.44-76.57c0-.46,0-.92,0-1.39v-7.55l5.34,5.34,1,1A103.35,103.35,0,0,1,258.94,314Zm80.68,13.06v12.56H327.06a103,103,0,0,1-61.57-20.34A110.85,110.85,0,0,0,251,251a109.91,109.91,0,0,0,56.08,15.23,111,111,0,0,0,12.27-.68A103,103,0,0,1,339.62,327.06Zm40.67-98.18a102.79,102.79,0,0,1-57.88,29.21A110.8,110.8,0,0,0,263.76,220a110.8,110.8,0,0,0,58.65-38.09,102.73,102.73,0,0,1,57.88,29.21l8.88,8.88Z"/></svg>