<svg id="Layer_1" data-name="Layer 1" xmlns="http://www.w3.org/2000/svg" viewBox="0 0 440 440"><defs><style>.cls-1{fill:#263c47;}</style></defs><path class="cls-1" d="M348.38,90.16l-25.11,0-96.12-25.6a15.35,15.35,0,1,0-14.82.15L117.89,89.83l-26.25,0a3.5,3.5,0,0,0,0,7l19.51,0v280.6h-3a3.49,3.49,0,0,0-3.33,2.43l-6.4,19.74a3.5,3.5,0,0,0,3.33,4.57H338.24a3.5,3.5,0,0,0,3.33-4.57l-6.39-19.74a3.5,3.5,0,0,0-3.33-2.43h-3V97.13l19.49,0h0a3.5,3.5,0,0,0,0-7Zm-137.13-39a8.37,8.37,0,1,1,8.37,8.35A8.36,8.36,0,0,1,211.25,51.17ZM220,69.88l75.91,20.21-151-.22ZM118.14,97l.66-.16,203.07.3V377.42h-76V261.66a3.5,3.5,0,0,0-3.5-3.5H223.16v-14A24.65,24.65,0,0,0,242.47,230a26.74,26.74,0,0,0-1.84-26.13l-18-27.12a3.5,3.5,0,0,0-5.83,0L198.7,203.84A26.76,26.76,0,0,0,196.85,230a24.68,24.68,0,0,0,19.31,14.19v14H196.37a3.5,3.5,0,0,0-3.5,3.5V377.42H118.14Zm94.63,126.76,6.89-10.35,6.9,10.35a9,9,0,0,1,.61,8.9,8.11,8.11,0,0,1-4,4V228.8a3.5,3.5,0,0,0-7,0v7.86a8.13,8.13,0,0,1-4-4A9,9,0,0,1,212.77,223.75ZM207,219.88A16,16,0,0,0,204.3,229a18.09,18.09,0,0,1-1.12-2,19.48,19.48,0,0,1,1.35-19.27L219.66,185l15.14,22.74A19.48,19.48,0,0,1,236.15,227a18.09,18.09,0,0,1-1.12,2,16,16,0,0,0-2.65-9.14l-9.8-14.73a3.52,3.52,0,0,0-5.83,0Zm31.92,45.28v112h-39v-112Zm90.44,119.26,4.12,12.74H106.58l4.12-12.74Z"/></svg>