<svg id="Layer_1" data-name="Layer 1" xmlns="http://www.w3.org/2000/svg" viewBox="0 0 440 440"><defs><style>.cls-1{fill:#263c47;}</style></defs><path class="cls-1" d="M345.29,58.29a43.47,43.47,0,1,0,43.47,43.47A43.52,43.52,0,0,0,345.29,58.29Zm0,79.94a36.47,36.47,0,1,1,36.47-36.47A36.51,36.51,0,0,1,345.29,138.23ZM416,376.46l-132.79-230a3.51,3.51,0,0,0-6.07,0l-30,51.88-57.16-99a3.5,3.5,0,0,0-6.06,0L24,376.46a3.5,3.5,0,0,0,3,5.25H413a3.5,3.5,0,0,0,3-5.25ZM33.08,374.71,187,108.08l56.14,97.26L145.39,374.71Zm120.39,0,93.74-162.37L341,374.71Zm195.57,0L251.26,205.34l28.93-50.13,126.73,219.5Z"/></svg>