<svg id="Layer_1" data-name="Layer 1" xmlns="http://www.w3.org/2000/svg" viewBox="0 0 440 440"><defs><style>.cls-1{fill:#263c47;}</style></defs><path class="cls-1" d="M256.21,327.37,245.4,315.78a3.5,3.5,0,0,0-6.06,2.39v35a3.51,3.51,0,0,0,2.75,3.42,3.82,3.82,0,0,0,.75.08,3.51,3.51,0,0,0,3.18-2l10.8-23.42A3.48,3.48,0,0,0,256.21,327.37Zm-9.87,9.86V327.05l3.14,3.37ZM198,314.91a3.51,3.51,0,0,0-3.84.87l-10.8,11.59a3.49,3.49,0,0,0-.62,3.85l10.8,23.42a3.52,3.52,0,0,0,3.18,2,3.82,3.82,0,0,0,.75-.08,3.5,3.5,0,0,0,2.75-3.42v-35A3.5,3.5,0,0,0,198,314.91Zm-4.78,22.32-3.14-6.81,3.14-3.37Zm62.95-9.86L245.4,315.78a3.5,3.5,0,0,0-6.06,2.39v35a3.51,3.51,0,0,0,2.75,3.42,3.82,3.82,0,0,0,.75.08,3.51,3.51,0,0,0,3.18-2l10.8-23.42A3.48,3.48,0,0,0,256.21,327.37Zm-9.87,9.86V327.05l3.14,3.37ZM198,314.91a3.51,3.51,0,0,0-3.84.87l-10.8,11.59a3.49,3.49,0,0,0-.62,3.85l10.8,23.42a3.52,3.52,0,0,0,3.18,2,3.82,3.82,0,0,0,.75-.08,3.5,3.5,0,0,0,2.75-3.42v-35A3.5,3.5,0,0,0,198,314.91Zm-4.78,22.32-3.14-6.81,3.14-3.37ZM198,314.91a3.51,3.51,0,0,0-3.84.87l-10.8,11.59a3.49,3.49,0,0,0-.62,3.85l10.8,23.42a3.52,3.52,0,0,0,3.18,2,3.82,3.82,0,0,0,.75-.08,3.5,3.5,0,0,0,2.75-3.42v-35A3.5,3.5,0,0,0,198,314.91Zm-4.78,22.32-3.14-6.81,3.14-3.37Zm62.95-9.86L245.4,315.78a3.5,3.5,0,0,0-6.06,2.39v35a3.51,3.51,0,0,0,2.75,3.42,3.82,3.82,0,0,0,.75.08,3.51,3.51,0,0,0,3.18-2l10.8-23.42A3.48,3.48,0,0,0,256.21,327.37Zm-9.87,9.86V327.05l3.14,3.37Zm9.87-9.86L245.4,315.78a3.5,3.5,0,0,0-6.06,2.39v35a3.51,3.51,0,0,0,2.75,3.42,3.82,3.82,0,0,0,.75.08,3.51,3.51,0,0,0,3.18-2l10.8-23.42A3.48,3.48,0,0,0,256.21,327.37Zm-9.87,9.86V327.05l3.14,3.37ZM198,314.91a3.51,3.51,0,0,0-3.84.87l-10.8,11.59a3.49,3.49,0,0,0-.62,3.85l10.8,23.42a3.52,3.52,0,0,0,3.18,2,3.82,3.82,0,0,0,.75-.08,3.5,3.5,0,0,0,2.75-3.42v-35A3.5,3.5,0,0,0,198,314.91Zm-4.78,22.32-3.14-6.81,3.14-3.37ZM198,314.91a3.51,3.51,0,0,0-3.84.87l-10.8,11.59a3.49,3.49,0,0,0-.62,3.85l10.8,23.42a3.52,3.52,0,0,0,3.18,2,3.82,3.82,0,0,0,.75-.08,3.5,3.5,0,0,0,2.75-3.42v-35A3.5,3.5,0,0,0,198,314.91Zm-4.78,22.32-3.14-6.81,3.14-3.37Zm62.95-9.86L245.4,315.78a3.5,3.5,0,0,0-6.06,2.39v35a3.51,3.51,0,0,0,2.75,3.42,3.82,3.82,0,0,0,.75.08,3.51,3.51,0,0,0,3.18-2l10.8-23.42A3.48,3.48,0,0,0,256.21,327.37Zm-9.87,9.86V327.05l3.14,3.37Zm9.87-9.86L245.4,315.78a3.5,3.5,0,0,0-6.06,2.39v35a3.51,3.51,0,0,0,2.75,3.42,3.82,3.82,0,0,0,.75.08,3.51,3.51,0,0,0,3.18-2l10.8-23.42A3.48,3.48,0,0,0,256.21,327.37Zm-9.87,9.86V327.05l3.14,3.37ZM198,314.91a3.51,3.51,0,0,0-3.84.87l-10.8,11.59a3.49,3.49,0,0,0-.62,3.85l10.8,23.42a3.52,3.52,0,0,0,3.18,2,3.82,3.82,0,0,0,.75-.08,3.5,3.5,0,0,0,2.75-3.42v-35A3.5,3.5,0,0,0,198,314.91Zm-4.78,22.32-3.14-6.81,3.14-3.37ZM198,314.91a3.51,3.51,0,0,0-3.84.87l-10.8,11.59a3.49,3.49,0,0,0-.62,3.85l10.8,23.42a3.52,3.52,0,0,0,3.18,2,3.82,3.82,0,0,0,.75-.08,3.5,3.5,0,0,0,2.75-3.42v-35A3.5,3.5,0,0,0,198,314.91Zm-4.78,22.32-3.14-6.81,3.14-3.37Zm62.95-9.86L245.4,315.78a3.5,3.5,0,0,0-6.06,2.39v35a3.51,3.51,0,0,0,2.75,3.42,3.82,3.82,0,0,0,.75.08,3.51,3.51,0,0,0,3.18-2l10.8-23.42A3.48,3.48,0,0,0,256.21,327.37Zm-9.87,9.86V327.05l3.14,3.37Zm9.87-9.86L245.4,315.78a3.5,3.5,0,0,0-6.06,2.39v35a3.51,3.51,0,0,0,2.75,3.42,3.82,3.82,0,0,0,.75.08,3.51,3.51,0,0,0,3.18-2l10.8-23.42A3.48,3.48,0,0,0,256.21,327.37Zm-9.87,9.86V327.05l3.14,3.37ZM198,314.91a3.51,3.51,0,0,0-3.84.87l-10.8,11.59a3.49,3.49,0,0,0-.62,3.85l10.8,23.42a3.52,3.52,0,0,0,3.18,2,3.82,3.82,0,0,0,.75-.08,3.5,3.5,0,0,0,2.75-3.42v-35A3.5,3.5,0,0,0,198,314.91Zm-4.78,22.32-3.14-6.81,3.14-3.37ZM198,314.91a3.51,3.51,0,0,0-3.84.87l-10.8,11.59a3.49,3.49,0,0,0-.62,3.85l10.8,23.42a3.52,3.52,0,0,0,3.18,2,3.82,3.82,0,0,0,.75-.08,3.5,3.5,0,0,0,2.75-3.42v-35A3.5,3.5,0,0,0,198,314.91Zm-4.78,22.32-3.14-6.81,3.14-3.37Zm62.95-9.86L245.4,315.78a3.5,3.5,0,0,0-6.06,2.39v35a3.51,3.51,0,0,0,2.75,3.42,3.82,3.82,0,0,0,.75.08,3.51,3.51,0,0,0,3.18-2l10.8-23.42A3.48,3.48,0,0,0,256.21,327.37Zm-9.87,9.86V327.05l3.14,3.37Zm9.87-9.86L245.4,315.78a3.5,3.5,0,0,0-6.06,2.39v35a3.51,3.51,0,0,0,2.75,3.42,3.82,3.82,0,0,0,.75.08,3.51,3.51,0,0,0,3.18-2l10.8-23.42A3.48,3.48,0,0,0,256.21,327.37Zm-9.87,9.86V327.05l3.14,3.37ZM198,314.91a3.51,3.51,0,0,0-3.84.87l-10.8,11.59a3.49,3.49,0,0,0-.62,3.85l10.8,23.42a3.52,3.52,0,0,0,3.18,2,3.82,3.82,0,0,0,.75-.08,3.5,3.5,0,0,0,2.75-3.42v-35A3.5,3.5,0,0,0,198,314.91Zm-4.78,22.32-3.14-6.81,3.14-3.37ZM198,314.91a3.51,3.51,0,0,0-3.84.87l-10.8,11.59a3.49,3.49,0,0,0-.62,3.85l10.8,23.42a3.52,3.52,0,0,0,3.18,2,3.82,3.82,0,0,0,.75-.08,3.5,3.5,0,0,0,2.75-3.42v-35A3.5,3.5,0,0,0,198,314.91Zm-4.78,22.32-3.14-6.81,3.14-3.37Zm62.95-9.86L245.4,315.78a3.5,3.5,0,0,0-6.06,2.39v35a3.51,3.51,0,0,0,2.75,3.42,3.82,3.82,0,0,0,.75.08,3.51,3.51,0,0,0,3.18-2l10.8-23.42A3.48,3.48,0,0,0,256.21,327.37Zm-9.87,9.86V327.05l3.14,3.37Zm9.87-9.86L245.4,315.78a3.5,3.5,0,0,0-6.06,2.39v35a3.51,3.51,0,0,0,2.75,3.42,3.82,3.82,0,0,0,.75.08,3.51,3.51,0,0,0,3.18-2l10.8-23.42A3.48,3.48,0,0,0,256.21,327.37Zm-9.87,9.86V327.05l3.14,3.37ZM198,314.91a3.51,3.51,0,0,0-3.84.87l-10.8,11.59a3.49,3.49,0,0,0-.62,3.85l10.8,23.42a3.52,3.52,0,0,0,3.18,2,3.82,3.82,0,0,0,.75-.08,3.5,3.5,0,0,0,2.75-3.42v-35A3.5,3.5,0,0,0,198,314.91Zm-4.78,22.32-3.14-6.81,3.14-3.37ZM198,314.91a3.51,3.51,0,0,0-3.84.87l-10.8,11.59a3.49,3.49,0,0,0-.62,3.85l10.8,23.42a3.52,3.52,0,0,0,3.18,2,3.82,3.82,0,0,0,.75-.08,3.5,3.5,0,0,0,2.75-3.42v-35A3.5,3.5,0,0,0,198,314.91Zm-4.78,22.32-3.14-6.81,3.14-3.37Zm62.95-9.86L245.4,315.78a3.5,3.5,0,0,0-6.06,2.39v35a3.51,3.51,0,0,0,2.75,3.42,3.82,3.82,0,0,0,.75.08,3.51,3.51,0,0,0,3.18-2l10.8-23.42A3.48,3.48,0,0,0,256.21,327.37Zm-9.87,9.86V327.05l3.14,3.37Zm9.87-9.86L245.4,315.78a3.5,3.5,0,0,0-6.06,2.39v35a3.51,3.51,0,0,0,2.75,3.42,3.82,3.82,0,0,0,.75.08,3.51,3.51,0,0,0,3.18-2l10.8-23.42A3.48,3.48,0,0,0,256.21,327.37Zm-9.87,9.86V327.05l3.14,3.37ZM198,314.91a3.51,3.51,0,0,0-3.84.87l-10.8,11.59a3.49,3.49,0,0,0-.62,3.85l10.8,23.42a3.52,3.52,0,0,0,3.18,2,3.82,3.82,0,0,0,.75-.08,3.5,3.5,0,0,0,2.75-3.42v-35A3.5,3.5,0,0,0,198,314.91Zm-4.78,22.32-3.14-6.81,3.14-3.37Zm113.23,42.71L279.75,232.15l11-52.37a3.59,3.59,0,0,0,0-1.46h2a3.5,3.5,0,0,0,0-7h-4.62l-14.82-38.78h.05a3.47,3.47,0,0,0,2.2-.78l27.58-22.36a3.52,3.52,0,0,0,1.3-2.72V38.17a3.5,3.5,0,0,0-6.07-2.38L257.65,79.61l-.08-45.45a3.5,3.5,0,0,0-4.48-3.35L220,40.52l-33.07-9.71a3.5,3.5,0,0,0-3.08.56,3.45,3.45,0,0,0-1.41,2.79l-.07,43.48L143.22,35.78a3.5,3.5,0,0,0-6.06,2.39v68.51a3.48,3.48,0,0,0,1.33,2.74l28.26,22.37a2,2,0,0,0,.19.12l-15.06,39.41h-5.45a3.5,3.5,0,0,0,0,7h2.82a3.59,3.59,0,0,0,0,1.46l11,52.29L133.51,379.94a3.46,3.46,0,0,0,1,3.1l25.35,25.28a3.49,3.49,0,0,0,2.47,1H277.69a3.47,3.47,0,0,0,2.47-1L305.51,383A3.5,3.5,0,0,0,306.49,379.94ZM283.72,179.35,281.26,191a11.17,11.17,0,0,0-8.62-5l4.38-7.69h6.3Zm-11.82,29a11.11,11.11,0,0,0,6.08-1.81l-14.85,70.52V204.13A11.2,11.2,0,0,0,271.9,208.37Zm-4.22-11.2a4.22,4.22,0,1,1,4.22,4.2A4.21,4.21,0,0,1,267.68,197.17Zm-10-107.29,39.78-42.8V105l-26.29,21.31c-.06.05-.1.11-.15.16L257.67,91.59Zm-68.23-51L219,47.53a3.48,3.48,0,0,0,2,0l29.58-8.69.08,48.29L221.06,119,189.36,85.1ZM144.16,105V47l38.2,40.83v3.73l-12.8,33.49Zm44.52-10.35,29.83,31.88a3.5,3.5,0,0,0,2.56,1.11,3.54,3.54,0,0,0,2.56-1.12L251.9,96.09l28.75,75.23H275a3.53,3.53,0,0,0-3.05,1.77l-15.35,27a3.5,3.5,0,0,0-.46,1.73V312.06a3.5,3.5,0,0,0,1.72,3l4.41,12.17-6.3,37a3.42,3.42,0,0,0-2.1-.72H183.94l-6.16-36.3,4.94-13.68a3.51,3.51,0,0,0,.21-.57l.62-1.73a3.55,3.55,0,0,0,.14-1.91l-.63-3V201.78a3.4,3.4,0,0,0-.46-1.73l-15.35-27a3.5,3.5,0,0,0-3-1.77h-4.84Zm66.25,275.72-1.15,6.72H186.24l-1.11-6.54h68.73A3.75,3.75,0,0,0,254.93,370.35Zm-88.22-162a11.22,11.22,0,0,0,9.35-5v69.82l-13.84-65.72A11.21,11.21,0,0,0,166.71,208.37Zm-4.21-11.2a4.21,4.21,0,1,1,4.21,4.2A4.21,4.21,0,0,1,162.5,197.17Zm-4-7.57-2.16-10.25.39-1h5.47l4.36,7.66A11.18,11.18,0,0,0,158.47,189.6ZM276.24,402.34H163.75l-23-23,23.37-129.14,12,56.87v4.27l-5.18,14.34a3.45,3.45,0,0,0-.16,1.77l9.12,53.66a3.49,3.49,0,0,0,3.45,2.92h73.45a3.51,3.51,0,0,0,3.45-2.91l9.12-53.66a3.47,3.47,0,0,0-.15-1.78l-5.77-15.91,12.53-59.49,23.35,129.06Zm-34.15-45.75a3.82,3.82,0,0,0,.75.08,3.51,3.51,0,0,0,3.18-2l10.8-23.42a3.48,3.48,0,0,0-.61-3.85L245.4,315.78a3.5,3.5,0,0,0-6.06,2.39v35A3.51,3.51,0,0,0,242.09,356.59Zm4.25-29.54,3.14,3.37-3.14,6.81Zm-63.56,4.17,10.8,23.42a3.52,3.52,0,0,0,3.18,2,3.82,3.82,0,0,0,.75-.08,3.5,3.5,0,0,0,2.75-3.42v-35a3.5,3.5,0,0,0-6.06-2.39l-10.8,11.59A3.49,3.49,0,0,0,182.78,331.22Zm10.48-4.17v10.18l-3.14-6.81ZM198,314.91a3.51,3.51,0,0,0-3.84.87l-10.8,11.59a3.49,3.49,0,0,0-.62,3.85l10.8,23.42a3.52,3.52,0,0,0,3.18,2,3.82,3.82,0,0,0,.75-.08,3.5,3.5,0,0,0,2.75-3.42v-35A3.5,3.5,0,0,0,198,314.91Zm-4.78,22.32-3.14-6.81,3.14-3.37Zm62.95-9.86L245.4,315.78a3.5,3.5,0,0,0-6.06,2.39v35a3.51,3.51,0,0,0,2.75,3.42,3.82,3.82,0,0,0,.75.08,3.51,3.51,0,0,0,3.18-2l10.8-23.42A3.48,3.48,0,0,0,256.21,327.37Zm-9.87,9.86V327.05l3.14,3.37Zm9.87-9.86L245.4,315.78a3.5,3.5,0,0,0-6.06,2.39v35a3.51,3.51,0,0,0,2.75,3.42,3.82,3.82,0,0,0,.75.08,3.51,3.51,0,0,0,3.18-2l10.8-23.42A3.48,3.48,0,0,0,256.21,327.37Zm-9.87,9.86V327.05l3.14,3.37ZM198,314.91a3.51,3.51,0,0,0-3.84.87l-10.8,11.59a3.49,3.49,0,0,0-.62,3.85l10.8,23.42a3.52,3.52,0,0,0,3.18,2,3.82,3.82,0,0,0,.75-.08,3.5,3.5,0,0,0,2.75-3.42v-35A3.5,3.5,0,0,0,198,314.91Zm-4.78,22.32-3.14-6.81,3.14-3.37ZM198,314.91a3.51,3.51,0,0,0-3.84.87l-10.8,11.59a3.49,3.49,0,0,0-.62,3.85l10.8,23.42a3.52,3.52,0,0,0,3.18,2,3.82,3.82,0,0,0,.75-.08,3.5,3.5,0,0,0,2.75-3.42v-35A3.5,3.5,0,0,0,198,314.91Zm-4.78,22.32-3.14-6.81,3.14-3.37Zm62.95-9.86L245.4,315.78a3.5,3.5,0,0,0-6.06,2.39v35a3.51,3.51,0,0,0,2.75,3.42,3.82,3.82,0,0,0,.75.08,3.51,3.51,0,0,0,3.18-2l10.8-23.42A3.48,3.48,0,0,0,256.21,327.37Zm-9.87,9.86V327.05l3.14,3.37Zm9.87-9.86L245.4,315.78a3.5,3.5,0,0,0-6.06,2.39v35a3.51,3.51,0,0,0,2.75,3.42,3.82,3.82,0,0,0,.75.08,3.51,3.51,0,0,0,3.18-2l10.8-23.42A3.48,3.48,0,0,0,256.21,327.37Zm-9.87,9.86V327.05l3.14,3.37ZM198,314.91a3.51,3.51,0,0,0-3.84.87l-10.8,11.59a3.49,3.49,0,0,0-.62,3.85l10.8,23.42a3.52,3.52,0,0,0,3.18,2,3.82,3.82,0,0,0,.75-.08,3.5,3.5,0,0,0,2.75-3.42v-35A3.5,3.5,0,0,0,198,314.91Zm-4.78,22.32-3.14-6.81,3.14-3.37ZM198,314.91a3.51,3.51,0,0,0-3.84.87l-10.8,11.59a3.49,3.49,0,0,0-.62,3.85l10.8,23.42a3.52,3.52,0,0,0,3.18,2,3.82,3.82,0,0,0,.75-.08,3.5,3.5,0,0,0,2.75-3.42v-35A3.5,3.5,0,0,0,198,314.91Zm-4.78,22.32-3.14-6.81,3.14-3.37Zm62.95-9.86L245.4,315.78a3.5,3.5,0,0,0-6.06,2.39v35a3.51,3.51,0,0,0,2.75,3.42,3.82,3.82,0,0,0,.75.08,3.51,3.51,0,0,0,3.18-2l10.8-23.42A3.48,3.48,0,0,0,256.21,327.37Zm-9.87,9.86V327.05l3.14,3.37Zm9.87-9.86L245.4,315.78a3.5,3.5,0,0,0-6.06,2.39v35a3.51,3.51,0,0,0,2.75,3.42,3.82,3.82,0,0,0,.75.08,3.51,3.51,0,0,0,3.18-2l10.8-23.42A3.48,3.48,0,0,0,256.21,327.37Zm-9.87,9.86V327.05l3.14,3.37ZM198,314.91a3.51,3.51,0,0,0-3.84.87l-10.8,11.59a3.49,3.49,0,0,0-.62,3.85l10.8,23.42a3.52,3.52,0,0,0,3.18,2,3.82,3.82,0,0,0,.75-.08,3.5,3.5,0,0,0,2.75-3.42v-35A3.5,3.5,0,0,0,198,314.91Zm-4.78,22.32-3.14-6.81,3.14-3.37ZM198,314.91a3.51,3.51,0,0,0-3.84.87l-10.8,11.59a3.49,3.49,0,0,0-.62,3.85l10.8,23.42a3.52,3.52,0,0,0,3.18,2,3.82,3.82,0,0,0,.75-.08,3.5,3.5,0,0,0,2.75-3.42v-35A3.5,3.5,0,0,0,198,314.91Zm-4.78,22.32-3.14-6.81,3.14-3.37Zm62.95-9.86L245.4,315.78a3.5,3.5,0,0,0-6.06,2.39v35a3.51,3.51,0,0,0,2.75,3.42,3.82,3.82,0,0,0,.75.08,3.51,3.51,0,0,0,3.18-2l10.8-23.42A3.48,3.48,0,0,0,256.21,327.37Zm-9.87,9.86V327.05l3.14,3.37Zm9.87-9.86L245.4,315.78a3.5,3.5,0,0,0-6.06,2.39v35a3.51,3.51,0,0,0,2.75,3.42,3.82,3.82,0,0,0,.75.08,3.51,3.51,0,0,0,3.18-2l10.8-23.42A3.48,3.48,0,0,0,256.21,327.37Zm-9.87,9.86V327.05l3.14,3.37ZM198,314.91a3.51,3.51,0,0,0-3.84.87l-10.8,11.59a3.49,3.49,0,0,0-.62,3.85l10.8,23.42a3.52,3.52,0,0,0,3.18,2,3.82,3.82,0,0,0,.75-.08,3.5,3.5,0,0,0,2.75-3.42v-35A3.5,3.5,0,0,0,198,314.91Zm-4.78,22.32-3.14-6.81,3.14-3.37ZM198,314.91a3.51,3.51,0,0,0-3.84.87l-10.8,11.59a3.49,3.49,0,0,0-.62,3.85l10.8,23.42a3.52,3.52,0,0,0,3.18,2,3.82,3.82,0,0,0,.75-.08,3.5,3.5,0,0,0,2.75-3.42v-35A3.5,3.5,0,0,0,198,314.91Zm-4.78,22.32-3.14-6.81,3.14-3.37Zm62.95-9.86L245.4,315.78a3.5,3.5,0,0,0-6.06,2.39v35a3.51,3.51,0,0,0,2.75,3.42,3.82,3.82,0,0,0,.75.08,3.51,3.51,0,0,0,3.18-2l10.8-23.42A3.48,3.48,0,0,0,256.21,327.37Zm-9.87,9.86V327.05l3.14,3.37Zm9.87-9.86L245.4,315.78a3.5,3.5,0,0,0-6.06,2.39v35a3.51,3.51,0,0,0,2.75,3.42,3.82,3.82,0,0,0,.75.08,3.51,3.51,0,0,0,3.18-2l10.8-23.42A3.48,3.48,0,0,0,256.21,327.37Zm-9.87,9.86V327.05l3.14,3.37ZM198,314.91a3.51,3.51,0,0,0-3.84.87l-10.8,11.59a3.49,3.49,0,0,0-.62,3.85l10.8,23.42a3.52,3.52,0,0,0,3.18,2,3.82,3.82,0,0,0,.75-.08,3.5,3.5,0,0,0,2.75-3.42v-35A3.5,3.5,0,0,0,198,314.91Zm-4.78,22.32-3.14-6.81,3.14-3.37ZM198,314.91a3.51,3.51,0,0,0-3.84.87l-10.8,11.59a3.49,3.49,0,0,0-.62,3.85l10.8,23.42a3.52,3.52,0,0,0,3.18,2,3.82,3.82,0,0,0,.75-.08,3.5,3.5,0,0,0,2.75-3.42v-35A3.5,3.5,0,0,0,198,314.91Zm-4.78,22.32-3.14-6.81,3.14-3.37Zm62.95-9.86L245.4,315.78a3.5,3.5,0,0,0-6.06,2.39v35a3.51,3.51,0,0,0,2.75,3.42,3.82,3.82,0,0,0,.75.08,3.51,3.51,0,0,0,3.18-2l10.8-23.42A3.48,3.48,0,0,0,256.21,327.37Zm-9.87,9.86V327.05l3.14,3.37Zm9.87-9.86L245.4,315.78a3.5,3.5,0,0,0-6.06,2.39v35a3.51,3.51,0,0,0,2.75,3.42,3.82,3.82,0,0,0,.75.08,3.51,3.51,0,0,0,3.18-2l10.8-23.42A3.48,3.48,0,0,0,256.21,327.37Zm-9.87,9.86V327.05l3.14,3.37ZM198,314.91a3.51,3.51,0,0,0-3.84.87l-10.8,11.59a3.49,3.49,0,0,0-.62,3.85l10.8,23.42a3.52,3.52,0,0,0,3.18,2,3.82,3.82,0,0,0,.75-.08,3.5,3.5,0,0,0,2.75-3.42v-35A3.5,3.5,0,0,0,198,314.91Zm-4.78,22.32-3.14-6.81,3.14-3.37Zm62.95-9.86L245.4,315.78a3.5,3.5,0,0,0-6.06,2.39v35a3.51,3.51,0,0,0,2.75,3.42,3.82,3.82,0,0,0,.75.08,3.51,3.51,0,0,0,3.18-2l10.8-23.42A3.48,3.48,0,0,0,256.21,327.37Zm-9.87,9.86V327.05l3.14,3.37ZM198,314.91a3.51,3.51,0,0,0-3.84.87l-10.8,11.59a3.49,3.49,0,0,0-.62,3.85l10.8,23.42a3.52,3.52,0,0,0,3.18,2,3.82,3.82,0,0,0,.75-.08,3.5,3.5,0,0,0,2.75-3.42v-35A3.5,3.5,0,0,0,198,314.91Zm-4.78,22.32-3.14-6.81,3.14-3.37Zm62.95-9.86L245.4,315.78a3.5,3.5,0,0,0-6.06,2.39v35a3.51,3.51,0,0,0,2.75,3.42,3.82,3.82,0,0,0,.75.08,3.51,3.51,0,0,0,3.18-2l10.8-23.42A3.48,3.48,0,0,0,256.21,327.37Zm-9.87,9.86V327.05l3.14,3.37ZM198,314.91a3.51,3.51,0,0,0-3.84.87l-10.8,11.59a3.49,3.49,0,0,0-.62,3.85l10.8,23.42a3.52,3.52,0,0,0,3.18,2,3.82,3.82,0,0,0,.75-.08,3.5,3.5,0,0,0,2.75-3.42v-35A3.5,3.5,0,0,0,198,314.91Zm-4.78,22.32-3.14-6.81,3.14-3.37Z"/></svg>