<svg id="Layer_1" data-name="Layer 1" xmlns="http://www.w3.org/2000/svg" viewBox="0 0 440 440"><defs><style>.cls-1{fill:#263c47;}</style></defs><path class="cls-1" d="M376.05,104.59a3.58,3.58,0,0,0-2-1,3.9,3.9,0,0,0-1.14-.2H338.69A230.61,230.61,0,0,0,245.25,123a37.49,37.49,0,0,0-5.56-13.66L212.86,69A3.5,3.5,0,0,0,207,69L180.2,109.32a38.08,38.08,0,0,0-2.62,37.18,36,36,0,0,0,10.15,12.88Q181.28,165,175.18,171l-17.32-26a3.5,3.5,0,0,0-5.83,0L125.2,185.32a38.08,38.08,0,0,0-2.62,37.18,36.24,36.24,0,0,0,7.93,11,230.52,230.52,0,0,0-23.27,101.36v32.29a3.56,3.56,0,0,0,0,2.19,3.49,3.49,0,0,0,3.47,3.21h34.2A231.43,231.43,0,0,0,376.38,141.09v-32A3.49,3.49,0,0,0,376.05,104.59ZM183.91,143.52A30.62,30.62,0,0,1,186,113.21l23.91-35.93,23.92,35.93A30.6,30.6,0,0,1,238.72,126a230.38,230.38,0,0,0-45.52,28.83A28.8,28.8,0,0,1,183.91,143.52Zm54.89-9.77a31.78,31.78,0,0,1-2.82,9.77,27.76,27.76,0,0,1-22.61,16.26,34.19,34.19,0,0,1-6.86,0,28.55,28.55,0,0,1-6.5-1.45A222.32,222.32,0,0,1,238.8,133.75Zm-59.94,55.46A30.65,30.65,0,0,1,181,219.52a27.76,27.76,0,0,1-22.61,16.26,34.19,34.19,0,0,1-6.86,0,27.61,27.61,0,0,1-12.2-4.21,225,225,0,0,1,34.87-49.39Zm-50,30.31A30.62,30.62,0,0,1,131,189.21l23.91-35.93,15.25,22.9a232.07,232.07,0,0,0-36.36,50.74A30.1,30.1,0,0,1,128.91,219.52ZM114.24,334.84a223.66,223.66,0,0,1,21.94-97,34.56,34.56,0,0,0,14.63,4.93c1.36.13,2.75.21,4.13.21s2.77-.08,4.14-.21a35.06,35.06,0,0,0,28.23-20.25,38.1,38.1,0,0,0-2.62-37.18L179.14,177l.84-.87q6.75-6.74,14-12.81a34.81,34.81,0,0,0,11.88,3.43c1.36.13,2.75.21,4.13.21s2.77-.08,4.14-.21a35.06,35.06,0,0,0,28.23-20.25,38.13,38.13,0,0,0,3.63-16.16,223.73,223.73,0,0,1,92.75-19.94h26.55l-251,249.19ZM369.38,141.09A224.45,224.45,0,0,1,144.94,365.53H118.19L369.38,116.16ZM128.69,109.32,101.86,69A3.5,3.5,0,0,0,96,69L69.2,109.32a38.08,38.08,0,0,0-2.62,37.18,35,35,0,0,0,28.23,20.25c1.36.13,2.75.21,4.13.21s2.77-.08,4.14-.21a35.06,35.06,0,0,0,28.23-20.25A38.1,38.1,0,0,0,128.69,109.32ZM125,143.52a27.76,27.76,0,0,1-22.61,16.26,34.19,34.19,0,0,1-6.86,0,27.73,27.73,0,0,1-22.6-16.26A30.62,30.62,0,0,1,75,113.21L98.94,77.28l23.92,35.93A30.65,30.65,0,0,1,125,143.52Z"/></svg>