<svg id="Layer_1" data-name="Layer 1" xmlns="http://www.w3.org/2000/svg" viewBox="0 0 440 440"><defs><style>.cls-1{fill:#263c47;}</style></defs><path class="cls-1" d="M329.5,233V198a3.34,3.34,0,0,0-.17-1V170.92c0-2.72-.11-5.42-.32-8a109.39,109.39,0,0,0-218.19,0c-.21,2.62-.32,5.32-.32,8V375a3.5,3.5,0,0,0,3.5,3.5H326a3.5,3.5,0,0,0,3.5-3.5V305a3.34,3.34,0,0,0-.17-1V234A3.34,3.34,0,0,0,329.5,233Zm-7.17,138.5H117.5v-28H322.33Zm0-35H159.5v-28H322.33ZM322,273v28H199V273Zm-83-8V237h83v28Zm83.33-35.5H277.5v-28h44.83Zm0-35H274a3.5,3.5,0,0,0-3.5,3.5v32h-35a3.5,3.5,0,0,0-3.5,3.5V266H195.5a3.5,3.5,0,0,0-3.5,3.5v32H156a3.5,3.5,0,0,0-3.5,3.5v31.5h-35V170.92c0-2.53.1-5,.3-7.5,3.81-53.23,48.66-94.92,102.12-94.92s98.3,41.69,102.12,94.95c.19,2.43.29,4.94.29,7.47Z"/></svg>