<svg id="Layer_1" data-name="Layer 1" xmlns="http://www.w3.org/2000/svg" viewBox="0 0 440 440"><defs><style>.cls-1{fill:#263c47;}</style></defs><path class="cls-1" d="M377.59,347.07c-.36-1.75-.76-3.49-1.18-5.21-.13-.57-.29-1.13-.44-1.69-.29-1.16-.58-2.31-.9-3.46-.19-.69-.41-1.37-.61-2.06-.3-1-.59-2-.9-3-.23-.74-.49-1.46-.73-2.19-.31-.94-.62-1.89-.94-2.82-.27-.75-.56-1.49-.83-2.24s-.66-1.81-1-2.7-.62-1.51-.93-2.27-.69-1.73-1.06-2.59-.68-1.52-1-2.28-.73-1.67-1.12-2.5-.74-1.52-1.11-2.28-.77-1.62-1.18-2.42-.79-1.51-1.19-2.26-.82-1.58-1.25-2.35-.84-1.5-1.27-2.25-.86-1.53-1.31-2.28-.9-1.48-1.35-2.22-.91-1.48-1.37-2.21-.95-1.47-1.43-2.19-1-1.44-1.43-2.15-1-1.44-1.51-2.16-1-1.4-1.49-2.09-1.05-1.41-1.58-2.11-1-1.36-1.55-2-1.1-1.38-1.65-2.06l-1.61-2-1.72-2-1.67-1.92c-.59-.66-1.19-1.31-1.79-2l-1.72-1.86c-.61-.64-1.24-1.27-1.86-1.91s-1.18-1.2-1.78-1.79l-1.91-1.85c-.61-.59-1.22-1.17-1.84-1.74s-1.31-1.2-2-1.79-1.25-1.13-1.89-1.68l-2-1.73-2-1.62c-.68-.56-1.38-1.11-2.07-1.65s-1.31-1-2-1.53a98.05,98.05,0,0,0-42.75-69A161.36,161.36,0,0,0,223,78.58a3.48,3.48,0,0,0-4.72,0,161.46,161.46,0,0,0-51.75,104,98.11,98.11,0,0,0-43.3,68.82l-1.94,1.49-2.11,1.66-2,1.61-2.05,1.72-1.91,1.68c-.67.59-1.34,1.18-2,1.79l-1.85,1.73-1.94,1.85-1.79,1.79c-.63.63-1.26,1.27-1.88,1.91s-1.16,1.23-1.73,1.85-1.22,1.31-1.82,2-1.12,1.27-1.67,1.91-1.18,1.34-1.75,2-1.08,1.31-1.62,2l-1.68,2.08c-.52.67-1,1.34-1.55,2s-1.08,1.41-1.61,2.12-1,1.39-1.5,2.09-1,1.43-1.53,2.16-1,1.43-1.44,2.15-1,1.46-1.45,2.2-.92,1.47-1.38,2.21-.93,1.48-1.38,2.23-.88,1.51-1.31,2.27-.88,1.5-1.3,2.26-.84,1.57-1.26,2.35-.81,1.51-1.2,2.28-.8,1.61-1.2,2.42-.76,1.52-1.12,2.29-.76,1.67-1.14,2.5-.7,1.53-1,2.3S71.37,318,71,318.85s-.64,1.52-.94,2.29-.68,1.79-1,2.69-.58,1.5-.85,2.26c-.33.94-.64,1.89-1,2.83-.24.74-.5,1.46-.74,2.2-.31,1-.61,2-.91,3-.2.69-.42,1.38-.62,2.08-.32,1.14-.61,2.29-.91,3.44l-.46,1.72c-.43,1.74-.83,3.48-1.2,5.24a3.5,3.5,0,0,0,2.35,4.05,160.75,160.75,0,0,0,49.57,7.79c1.24,0,2.48,0,3.72,0l1.24-.05c.83,0,1.65,0,2.47-.08l1.48-.09,2.22-.12L127,358l2.12-.17,1.61-.17,2.06-.21,1.63-.2,2-.26,1.63-.25c.67-.1,1.34-.19,2-.3l1.65-.28,2-.35,1.65-.32,2-.39,1.65-.35,1.93-.44c.55-.12,1.1-.26,1.64-.39l1.92-.48,1.63-.43,1.9-.52,1.63-.47,1.88-.56,1.62-.51,1.86-.6,1.61-.54,1.85-.65,1.6-.58.08,0a97.77,97.77,0,0,0,100.46-.1l.42.15,1.68.61,1.76.62,1.69.57,1.79.58,1.7.53,1.8.54,1.7.49,1.83.5,1.71.45,1.84.46,1.71.41c.62.15,1.25.28,1.87.42l1.71.37c.63.14,1.26.26,1.9.38s1.13.23,1.7.33l1.92.34,1.71.29c.64.11,1.29.2,1.94.3l1.69.25,2,.25,1.67.21c.67.08,1.35.14,2,.21l1.64.17,2.1.17,1.59.13,2.22.12,1.48.09c.82,0,1.65.06,2.47.08l1.25.05c1.24,0,2.48,0,3.72,0a161.07,161.07,0,0,0,48.39-7.4A3.5,3.5,0,0,0,377.59,347.07ZM272.6,227.3c.1-.52.19-1.05.29-1.58.14-.79.28-1.58.41-2.38.09-.55.17-1.11.25-1.66.12-.78.23-1.55.34-2.33.08-.57.15-1.14.22-1.7.1-.78.19-1.55.28-2.32l.18-1.72c.08-.78.15-1.56.21-2.35.05-.56.1-1.12.14-1.68.06-.82.11-1.64.16-2.45,0-.53.07-1.06.1-1.59,0-.9.07-1.8.1-2.7,0-.45,0-.9.05-1.35,0-1.35.05-2.69.05-4,0-1.83,0-3.64-.1-5.46a91.13,91.13,0,0,1,34.14,54.22l-.52-.34-2.22-1.44c-.73-.46-1.46-.93-2.19-1.38s-1.5-.92-2.26-1.36-1.5-.89-2.26-1.32-1.52-.87-2.29-1.29l-2.31-1.25c-.78-.41-1.55-.82-2.33-1.21l-2.38-1.19-2.35-1.13c-.81-.38-1.62-.75-2.44-1.11s-1.58-.71-2.38-1.05-1.67-.7-2.5-1-1.6-.65-2.41-1-1.7-.66-2.56-1-1.61-.6-2.43-.89c-.36-.12-.72-.27-1.09-.39C272.54,227.69,272.57,227.49,272.6,227.3ZM220.61,86a154.42,154.42,0,0,1,46.58,92.47,97.81,97.81,0,0,0-93.16-.35A154.5,154.5,0,0,1,220.61,86ZM173.19,186.61A90.78,90.78,0,0,1,268,187c.24,3.46.37,6.95.37,10.45,0,1.35,0,2.7-.05,4.05s-.1,2.9-.18,4.35a153.44,153.44,0,0,1-2.37,19.88,161.72,161.72,0,0,0-90.46-.35,154.12,154.12,0,0,1-2.53-27.88C172.79,193.85,172.93,190.22,173.19,186.61Zm91.12,46A152.73,152.73,0,0,1,220.55,309a152.63,152.63,0,0,1-43.78-76.69,154.52,154.52,0,0,1,87.54.32Zm-98.4-41.06c-.07,2-.12,4-.12,6,0,1.33,0,2.66.05,4,0,.44,0,.88,0,1.32,0,.89.06,1.78.1,2.67l.09,1.57c0,.81.1,1.61.16,2.42,0,.55.09,1.11.13,1.66l.21,2.32.18,1.69c.08.76.17,1.52.26,2.27.07.57.15,1.14.22,1.71.1.75.21,1.5.32,2.25.09.56.17,1.12.26,1.68.12.77.26,1.53.39,2.29.09.54.19,1.08.29,1.62,0,.17.05.34.09.51l-1.09.38-2.48.88-2.55.95c-.82.31-1.64.64-2.45,1l-2.5,1-2.43,1.05c-.81.36-1.63.72-2.43,1.1s-1.6.74-2.4,1.12-1.59.77-2.38,1.17-1.58.8-2.36,1.2l-2.32,1.24c-.78.42-1.56.85-2.33,1.29s-1.51.86-2.26,1.3l-2.29,1.36c-.74.45-1.47.91-2.2,1.37l-2.25,1.43c-.19.14-.4.26-.6.39A91.11,91.11,0,0,1,165.91,191.53ZM114.34,351.47A154.11,154.11,0,0,1,70,345a153.39,153.39,0,0,1,14.1-37.44q3.06-5.71,6.58-11.12c1.25-1.93,2.53-3.83,3.86-5.7a153.09,153.09,0,0,1,15.88-18.87,155.63,155.63,0,0,1,12-10.93c0,1.16-.06,2.32-.06,3.49a97.87,97.87,0,0,0,40.47,79.26A154,154,0,0,1,114.34,351.47Zm15-87.07a89.85,89.85,0,0,1,.46-9.18,153.43,153.43,0,0,1,40.25-20.83,159.56,159.56,0,0,0,45.31,79.32,153.78,153.78,0,0,1-44.47,27A91,91,0,0,1,129.34,264.4Zm90.95,91a90.36,90.36,0,0,1-41.8-10.19l.16-.07,1.55-.69c.6-.26,1.19-.53,1.78-.81l1.54-.72,1.76-.85,1.53-.76,1.73-.89,1.52-.8,1.71-.92,1.5-.84,1.69-1,1.48-.87,1.67-1,1.47-.9,1.64-1,1.45-.94,1.61-1.08,1.45-1,1.58-1.11,1.43-1,1.55-1.14,1.41-1.06,1.53-1.18,1.4-1.1,1.48-1.2c.46-.38.93-.75,1.39-1.14s1-.82,1.45-1.23.92-.78,1.37-1.18l.22-.19.23.2,1.32,1.13c.5.43,1,.86,1.51,1.28l1.35,1.12,1.52,1.22,1.39,1.1,1.52,1.18,1.43,1.06,1.54,1.14,1.44,1c.52.37,1,.74,1.57,1.1l1.47,1c.53.35,1,.71,1.58,1l1.5,1,1.59,1L243,335l1.62,1,1.54.9c.54.31,1.08.63,1.63.93l1.56.87,1.65.9,1.58.83,1.67.85,1.6.8,1.68.81,1.62.76,1.7.78,1.43.63A90.35,90.35,0,0,1,220.29,355.35Zm49.57-14.73a154,154,0,0,1-44.13-26.9A159.63,159.63,0,0,0,271,234.79a153.3,153.3,0,0,1,39.82,21c.27,2.84.42,5.73.42,8.65A90.93,90.93,0,0,1,269.86,340.62Zm57,10.9a153.69,153.69,0,0,1-36.14-4.29q-6.48-1.55-12.79-3.66a97.88,97.88,0,0,0,40.35-79.17c0-1,0-1.95-.05-2.91a153.91,153.91,0,0,1,51.85,83.88A154.14,154.14,0,0,1,326.83,351.52Z"/></svg>