<svg xmlns="http://www.w3.org/2000/svg" viewBox="0 0 500 500"><defs><style>.a{fill:#2d5266;fill-rule:evenodd;}</style></defs><path class="a" d="M496.34,237.44c-.12,2.1-5.62,3.9-12.64,5.9s-15.5,4.16-21.6,7C449.76,256,383.58,271,369,276.68s-49,9.62-56.82,6.7a1.24,1.24,0,0,1-.68-.22c-9.18-7.64-16.24-7.58-22.24-4.8-.58,11.34-1.66,23.64-3.36,37-1.14,8.92-3.5,15.68-6.64,20.76C281.8,366,267,383.28,255.62,392c-11.58,35.74-24.06,52.94-24.06,52.94C228.34,426,238,390,238,390s.12-.48.32-1.32c-9-31.5-9.92-52.68-6.54-66-3.2-7.18-12-19.9-17.28-42.2-6.84-4.52-14.86-6.64-26,2.66a1.19,1.19,0,0,1-.68.22c-7.8,2.92-42.34-1.12-56.82-6.7S50.22,256,37.88,250.32c-6.1-2.82-14.6-5-21.6-7s-12.52-3.8-12.62-5.9c-.84-12.34,11-13.3,17.46-12.32s43.5,11.4,43.5,11.4-37.84-13.64-39.86-17.06c-5.78-10.2,5.92-14.58,17.88-13.12,11,1.36,41.38,16,46,18.28-3.88-2.06-26-13.72-34-19.48-8.8-6.44-.48-10.46,8.12-10.32,10.4.28,33.78,15.7,40.68,20.36C98,211.26,82.64,200,78.18,193.52c-7.9-11.34,7-10.3,13.9-8.3,6.08,1.66,27.54,17,32.24,20.36-4.34-3.24-22.44-17.46-17.88-25.7s30.44,9.9,41.86,24.6c-5.72-10.12-13.72-26.58-6.92-26.12a28.68,28.68,0,0,1,13.08,4.06c10.12,5.84,17.7,16.56,21.54,24.08-3.5-7.38-13-28.88-4.94-26,15.12,5.24,26.2,22.44,30.64,31.12s-17.28-34.54-5.58-31a53.33,53.33,0,0,1,20.12,11.24c3.92-18.64,8.28-30.32,12.58-37.44-2.14-21.08-5.7-60.44-3.32-67.32,2.38-6.62,7.64-11.6,9.72-2.7,1.76,7.64,3.64,26.92,4.18,31.92-.38-5.94-2-32.18.12-40.66,2.4-9.64,8.9-17.08,14.54-9.2,1.86,2.7.78,36.24.78,36.24s3.22-31.76,4.32-37.1,5.24-14,13.84-9.14c.78.44,1.06,2,1.06,4.36,0,6.3-2.06,17.94-1.66,26.16.48,10-5.92,54.66-7.48,73.88,5.5,6.54,11.82,16.9,16.72,33a53.54,53.54,0,0,1,22.22-13.2c11.7-3.54-10,39.68-5.58,31s15.52-25.88,30.64-31.12c8-2.9-1.44,18.6-4.92,26,3.82-7.52,11.42-18.24,21.52-24.08a28.76,28.76,0,0,1,13.08-4.06c6.82-.46-1.2,16-6.92,26.12,11.42-14.7,37.22-32.88,41.88-24.6s-13.56,22.46-17.9,25.7c4.72-3.38,26.16-18.7,32.26-20.36,6.9-2,21.78-3,13.88,8.3-4.42,6.38-19.58,17.58-25.14,21.58,7.06-4.78,30.24-20,40.56-20.28,8.6-.14,16.92,3.88,8.12,10.32-8,5.76-30,17.4-34,19.48,4.6-2.24,35-16.92,46-18.28,12-1.46,23.68,2.92,17.88,13.12-2,3.42-39.86,17.06-39.86,17.06s37-10.34,43.52-11.4S497.16,225.1,496.34,237.44Z"/></svg>