<svg xmlns="http://www.w3.org/2000/svg" viewBox="0 0 500 500"><defs><style>.a{fill:#2d5266;fill-rule:evenodd;}</style></defs><path class="a" d="M415.19,237.79c-17.6-4.38-44.54-27.06-44.54-27.06l-1-.82c-7.3-.92-13.9-2-19.88-3.36-2.84,19.08-10,55.46-58.66,100.8-15.56,14.5-27,22.48-35.4,26.36,1.54,10,3.5,24.8,2.28,29-1.38,4.54-4.76,8.08-6.46,2.14-1.38-4.84-3.2-16.78-3.8-20.82.52,4.86,2.24,21.3,1.18,26.86-1.28,6.58-5.42,11.82-9.5,6.68-1.34-1.74-1.72-24.4-1.72-24.4s-1.12,21.52-1.68,25.16-3.06,9.6-9,6.64c-.7-.34-.9-2-.9-4.26,0-4.42.76-11.36.28-16.34-.72-7.26,2.58-41.58,2.6-52.62-1.48-11.12-.4-30.18,13.1-57.8-5.78,2.64-12.08,4.46-18.34,4.36-8.5,0,7.66-16.88,13.52-22.66-6.16,5.72-17,13.16-28.44,15.16a28.86,28.86,0,0,1-13.68-.68c-6.56-1.92,6.62-14.62,15.48-22.16-15.78,9.88-46.26,18.08-47.78,8.7-1.38-8.92,18.66-15.82,24.9-17.78-6.8,1.9-30.5,8.32-36.54,7.82-7.18-.5-21.52-4.64-10.2-12.56,6.62-4.64,25.9-10.2,31.76-11.82-7.3,1.84-35.68,8.68-45.78,5.3-8.14-2.84-14.56-9.48-4.08-12.48,9.52-2.7,34.62-6.06,38.7-6.62-4.74.48-38.7,3.86-49.56,1.36-11.74-2.74-21.22-10.88-12.26-18.48,3.06-2.5,43.28-2.3,43.28-2.3s-38.28-3-44.78-4.26-17.18-6.28-12.14-17.58c.5-1.18,2.84-1.56,6.24-1.56,7.76,0,21,2,30.32,1.24,13.56-1.12,80.86,7.58,96.46,7.24s49.32,7.84,55.64,13.28a1,1,0,0,1,.56.42c6.12,10.54,12.9,12.8,19.62,12.12,2.68-2.92,5.44-5.9,8.32-8.92.44-.46.88-.92,1.32-1.36.1-5.84-3.48-7.8-3.48-7.8-.26-.32-.32-.68.22-.9,1-.38,2.76-1.46,1.82-1.6s-1.74-1.16-2.1-1.22l-.3-.08-.28-.08c-.52-.26,0-.58,1.18-.74a31.08,31.08,0,0,0,4-.72,1.75,1.75,0,0,0-1-.84c-.56-.2-.88-.9.84-1s5.54-.8,4.86-.84-2.94-.3-3.56-.38a9.63,9.63,0,0,1-2.46-.72c-.14-.18.54-.8,1.66-1.16s3.84-1.46,3.58-1.64a5.09,5.09,0,0,1-.86-.78,20.6,20.6,0,0,1,3,.14,57.78,57.78,0,0,0,5.9.4,8.7,8.7,0,0,0-2.52-1.74c-1.44-.74-5.82-1.8-5.58-1.92s-.08-.46-.88-.76-3.08-1.26-2.88-1.36.54-.38.32-.46-.8-.38-.68-.56l.08,0a23.43,23.43,0,0,1,4.14.5l3.28.94c3.58,1.22,6.7,2.24,6.92,2.3s-.12-.42-1.3-.92l-1-.56a28,28,0,0,1-2.72-1.82l-1.54-1.1c-1.82-1.34-3.06-2.34-2.7-2.22a8.85,8.85,0,0,0,1.1.28,3.55,3.55,0,0,0-1.08-.68c-.64-.28,0-.26,2.84.72s9.64,4.06,9.9,4,.84-.66.48-.88-1.92-1.36-2.82-2.06-3-2.38-3-2.5c.16,0,.26-.14-.3-.48a15,15,0,0,1-1.94-1.34l.16,0c.22,0-.5-.7-1.62-1.54s-3.78-2.94-3.78-3,.16-.14-.1-.3a4.61,4.61,0,0,1-.9-.68,26.68,26.68,0,0,1,3.6,2.26c1.92,1.38,6.88,3.06,5.82,2.36s-3.82-2.52-3.82-2.56.24-.12.44-.06.22-.12-.38-.5a12,12,0,0,1-2-1.6.89.89,0,0,1,.8-.16c.32.12,3.64,2.36,6.82,4.58l2.86,2.06,1.5,1.08a20.68,20.68,0,0,0,3.06,2.14,11.43,11.43,0,0,0-1.74-2.58c-1-1.3-3.7-4.84-3.22-4.62a13.17,13.17,0,0,0,1.7.66.67.67,0,0,0,.12-.58,18.2,18.2,0,0,0-2.22-2.76c-1-1.06-3.4-3.72-3.4-3.8s.26-.24-.2-.62a11.09,11.09,0,0,1-1.52-1.44,59.3,59.3,0,0,1,5.8,3.52l2.58,2.18,2.62,2.24c2.68,2.44,4.94,4.42,5.18,4.54a23.41,23.41,0,0,0-2.22-3.74l-1.28-1.76-.52-.72-.82-2.24c-.12-.3-1.28-2.18-2.12-3.48s-3.26-5.12-3.52-5.54.6-.6,2.22.78,5.46,4.4,5.28,3.66-.2-2.42.34-1.76,2.16,1.18,1.72.46-2-3.44-2.54-4.4a40,40,0,0,1-2-4.06c-.06-.34,1.08-.34,2.76,1.28l1.2,1.5,1.24,1.58c1.18,1.86,2.28,3.54,2.5,3.76s.8.62.84.56a4,4,0,0,0-.66-1.44,16.06,16.06,0,0,1-1.56-2.58,30.43,30.43,0,0,1,4.3,4.54c1.22,1.5,3.42,4.46,5.1,6.68a5,5,0,0,1,1.64.68c.64.42-.76-4.28-1.46-6.28s-.22-2.72.08-2.34,3,4.06,3.86,5.32,2.22,3,2.46,3.24,1.08.94,1.8,1.58l.46.76,1.18,1.84c.24.34.46.68.68,1a2,2,0,0,1,0-.74,7,7,0,0,1,1.62,1.84c-.44-1.2-1.14-3.06-1.92-5.16l-1.12-3.26-1.1-3.2a54.08,54.08,0,0,1-1.12-6.68,13,13,0,0,1,.76,1.94c.18.56.48.52.5.4.12.06,1.68,3.28,2.32,4.58a19.81,19.81,0,0,0,1.72,3.08.69.69,0,0,0,.6.08,13.4,13.4,0,0,0,0-1.82c0-.24.5.44,1.14,1.42a5.34,5.34,0,0,1,1.56,1.14,14.77,14.77,0,0,1,1.84,3c-.14-.56-.32-1.2-.52-1.88l-.46-1.82-.86-3.38c-.88-3.78-1.78-7.72-1.76-8.06a.92.92,0,0,1,.44-.68,13.42,13.42,0,0,1,.76,2.48c.14.66.3.72.32.5a.53.53,0,0,1,.18-.36c.08,0,.78,3.26,1,4.48s.52-4-.06-6.28a27.43,27.43,0,0,1-.8-4.2,5.44,5.44,0,0,1,.32,1.1c.06.3.18.3.24.22s1,3.32,1.4,4.62.76,2.26.84,2.06l.08-.14a6.83,6.83,0,0,1,.4,1.5,4.65,4.65,0,0,1,.34.52,41.61,41.61,0,0,0,2.4,3.52c.3.34,1.1,1.12,1.14,1.14l-.16-1.44a37.21,37.21,0,0,0-.58-3.8c-.14-.48.8-1.68.84-1.84s1.3,1.06,2.52,3.22c1.16,2,3.14,7.08,3.42,7.5a7.06,7.06,0,0,1,0-1.52c.1,0,.44.22.6.58s.5.36.32-.8-1-5.28-1.38-6.54-.62-2.28-1.3-4.74l5.22,4c.74,1.68,1,2.46,1.36,3.42s.76,2.34.94,3.08,1.7,4.1,2.28,5.86l.34,1.66.32,1.62a21,21,0,0,0,.66,3.66c.14.24.56.8.66.8a10.52,10.52,0,0,0-.24-2.44c-.26-1.32-.9-4.78-.9-4.82a.79.79,0,0,1,.46.34l.08.24,2,6.26c-.3,7-.46,13.4-.42,14.18s.22,2.9.22,3-.42,2.46-.88,4.92c-.22,1.12-.7,3.46-1.24,6-.62,3.06-1.32,6.32-1.64,7.78-.44,2-1.42,7-1.86,9.88a11.15,11.15,0,0,0-.22,2s0,.06-.08.08,0,0,0,0a18.23,18.23,0,0,0,4.7,8C406.43,221.45,415.19,237.79,415.19,237.79Z"/></svg>