<svg id="Layer_1" data-name="Layer 1" xmlns="http://www.w3.org/2000/svg" viewBox="0 0 580 580"><defs><style>.cls-1{fill:#7f6333}</style></defs><circle class="cls-1" cx="290" cy="62.29" r="42.57"/><path d="M515 180.16L485.1 341a14.52 14.52 0 01-14.46 14.36H323.08a2.64 2.64 0 00-1.73 4.63l.06.06a47.91 47.91 0 012.48 70.09l-23.74 23.76a14.36 14.36 0 01-20.3 0l-23.74-23.76a47.91 47.91 0 012.48-70.14l.06-.06a2.64 2.64 0 00-1.73-4.63H109.35A14.52 14.52 0 0194.89 341L65 180.16c-.06-7.9 4.47-9.8 10-4.21l74.47 74.46c5.58 5.59 10.15 3.7 10.15-4.2v-66.05c0-7.9 4.57-9.79 10.15-4.21l66.32 66.32c5.59 5.59 13.06 4.38 16.61-2.67l23.8-47.31a14.37 14.37 0 00-2.69-16.63L229.07 131c-5.59-5.58-3.7-10.15 4.2-10.15h113.46c7.9 0 9.78 4.56 4.21 10.15 0 0-30.4 30.37-44.8 44.69a14.35 14.35 0 00-2.69 16.63l23.79 47.31c3.55 7.05 11 8.26 16.6 2.67l66.32-66.3c5.59-5.58 10.15-3.69 10.15 4.21v66.06c0 7.9 4.57 9.79 10.16 4.21L505 176c5.53-5.64 10.06-3.74 10 4.16z" fill="#263c47"/><path class="cls-1" d="M306.59 560.28h-33.18c-3.16 0-3.92-1.83-1.69-4.07l11.85-11.84a2.87 2.87 0 00.42-3.53c-3.41-5.53-12.85-21.79-12.85-31.72A47.14 47.14 0 01285 475.7a7.12 7.12 0 0110 0 47.18 47.18 0 0113.84 33.42c0 9.93-9.43 26.19-12.84 31.72a2.86 2.86 0 00.41 3.53l11.85 11.84c2.25 2.24 1.49 4.07-1.67 4.07z"/></svg>